<mxfile host="app.diagrams.net" modified="2024-06-02T19:49:00.135Z" agent="Mozilla/5.0 (Windows NT 10.0; Win64; x64) AppleWebKit/537.36 (KHTML, like Gecko) Chrome/125.0.0.0 Safari/537.36" etag="pJjFpgRmE94ZFOS4rZGW" version="24.4.13" type="device">
  <diagram name="Страница — 1" id="tMUsyUopj7X2PFUE4RJB">
    <mxGraphModel dx="977" dy="518" grid="1" gridSize="10" guides="1" tooltips="1" connect="1" arrows="1" fold="1" page="1" pageScale="1" pageWidth="827" pageHeight="1169" math="0" shadow="0">
      <root>
        <mxCell id="0" />
        <mxCell id="1" parent="0" />
        <mxCell id="qWDempu_S3Mu_BySNkmg-1" value="" style="endArrow=classic;html=1;rounded=0;" parent="1" edge="1">
          <mxGeometry width="50" height="50" relative="1" as="geometry">
            <mxPoint x="240" y="440" as="sourcePoint" />
            <mxPoint x="600" y="440" as="targetPoint" />
            <Array as="points" />
          </mxGeometry>
        </mxCell>
        <mxCell id="qWDempu_S3Mu_BySNkmg-9" value="0" style="edgeLabel;html=1;align=center;verticalAlign=middle;resizable=0;points=[];fontSize=8;" parent="qWDempu_S3Mu_BySNkmg-1" vertex="1" connectable="0">
          <mxGeometry x="-0.7446" y="1" relative="1" as="geometry">
            <mxPoint x="-56" y="11" as="offset" />
          </mxGeometry>
        </mxCell>
        <mxCell id="qWDempu_S3Mu_BySNkmg-2" value="" style="endArrow=classic;html=1;rounded=0;" parent="1" edge="1">
          <mxGeometry width="50" height="50" relative="1" as="geometry">
            <mxPoint x="240" y="440" as="sourcePoint" />
            <mxPoint x="240" y="280" as="targetPoint" />
          </mxGeometry>
        </mxCell>
        <mxCell id="qWDempu_S3Mu_BySNkmg-3" value="0.5" style="edgeLabel;html=1;align=center;verticalAlign=middle;resizable=0;points=[];fontSize=8;" parent="qWDempu_S3Mu_BySNkmg-2" vertex="1" connectable="0">
          <mxGeometry x="-0.0083" y="1" relative="1" as="geometry">
            <mxPoint x="-14" as="offset" />
          </mxGeometry>
        </mxCell>
        <mxCell id="qWDempu_S3Mu_BySNkmg-5" value="M(x)" style="text;html=1;align=center;verticalAlign=middle;resizable=0;points=[];autosize=1;strokeColor=none;fillColor=none;fontStyle=1" parent="1" vertex="1">
          <mxGeometry x="180" y="260" width="50" height="30" as="geometry" />
        </mxCell>
        <mxCell id="qWDempu_S3Mu_BySNkmg-8" value="M(x)" style="text;html=1;align=center;verticalAlign=middle;resizable=0;points=[];autosize=1;strokeColor=none;fillColor=none;fontStyle=1;fontSize=17;" parent="1" vertex="1">
          <mxGeometry x="95" y="530" width="60" height="30" as="geometry" />
        </mxCell>
        <mxCell id="qWDempu_S3Mu_BySNkmg-11" value="" style="endArrow=none;html=1;rounded=0;fontColor=#FF6666;fillColor=#ffe6cc;strokeColor=#d79b00;strokeWidth=3;" parent="1" edge="1">
          <mxGeometry width="50" height="50" relative="1" as="geometry">
            <mxPoint x="340" y="440" as="sourcePoint" />
            <mxPoint x="420" y="280" as="targetPoint" />
          </mxGeometry>
        </mxCell>
        <mxCell id="qWDempu_S3Mu_BySNkmg-12" value="10" style="text;html=1;align=center;verticalAlign=middle;resizable=0;points=[];autosize=1;strokeColor=none;fillColor=none;fontSize=8;" parent="1" vertex="1">
          <mxGeometry x="580" y="440" width="30" height="20" as="geometry" />
        </mxCell>
        <mxCell id="qWDempu_S3Mu_BySNkmg-14" value="" style="endArrow=none;html=1;rounded=0;fillColor=#ffe6cc;strokeColor=#d79b00;strokeWidth=3;" parent="1" edge="1">
          <mxGeometry width="50" height="50" relative="1" as="geometry">
            <mxPoint x="420" y="280" as="sourcePoint" />
            <mxPoint x="500" y="440" as="targetPoint" />
          </mxGeometry>
        </mxCell>
        <mxCell id="qWDempu_S3Mu_BySNkmg-15" value="" style="endArrow=none;html=1;rounded=0;fillColor=#dae8fc;strokeColor=#6c8ebf;strokeWidth=3;" parent="1" edge="1">
          <mxGeometry width="50" height="50" relative="1" as="geometry">
            <mxPoint x="240" y="280" as="sourcePoint" />
            <mxPoint x="380" y="440" as="targetPoint" />
          </mxGeometry>
        </mxCell>
        <mxCell id="qWDempu_S3Mu_BySNkmg-16" value="1" style="text;html=1;align=center;verticalAlign=middle;resizable=0;points=[];autosize=1;strokeColor=none;fillColor=none;strokeWidth=1;fontSize=8;" parent="1" vertex="1">
          <mxGeometry x="210" y="280" width="30" height="20" as="geometry" />
        </mxCell>
        <mxCell id="qWDempu_S3Mu_BySNkmg-17" value="" style="endArrow=none;html=1;rounded=0;fillColor=#d5e8d4;strokeColor=#82b366;strokeWidth=3;" parent="1" edge="1">
          <mxGeometry width="50" height="50" relative="1" as="geometry">
            <mxPoint x="600" y="280" as="sourcePoint" />
            <mxPoint x="460" y="440" as="targetPoint" />
          </mxGeometry>
        </mxCell>
        <mxCell id="qWDempu_S3Mu_BySNkmg-18" value="LS" style="text;html=1;align=center;verticalAlign=middle;resizable=0;points=[];autosize=1;strokeColor=none;fillColor=none;" parent="1" vertex="1">
          <mxGeometry x="220" y="250" width="40" height="30" as="geometry" />
        </mxCell>
        <mxCell id="qWDempu_S3Mu_BySNkmg-19" value="MS" style="text;html=1;align=center;verticalAlign=middle;resizable=0;points=[];autosize=1;strokeColor=none;fillColor=none;" parent="1" vertex="1">
          <mxGeometry x="400" y="248" width="40" height="30" as="geometry" />
        </mxCell>
        <mxCell id="qWDempu_S3Mu_BySNkmg-20" value="HS" style="text;html=1;align=center;verticalAlign=middle;resizable=0;points=[];autosize=1;strokeColor=none;fillColor=none;" parent="1" vertex="1">
          <mxGeometry x="580" y="248" width="40" height="30" as="geometry" />
        </mxCell>
        <mxCell id="qWDempu_S3Mu_BySNkmg-21" value="5" style="text;html=1;align=center;verticalAlign=middle;resizable=0;points=[];autosize=1;strokeColor=none;fillColor=none;fontSize=8;" parent="1" vertex="1">
          <mxGeometry x="405" y="440" width="30" height="20" as="geometry" />
        </mxCell>
        <mxCell id="qWDempu_S3Mu_BySNkmg-38" value="" style="endArrow=classic;html=1;rounded=0;" parent="1" edge="1">
          <mxGeometry width="50" height="50" relative="1" as="geometry">
            <mxPoint x="240" y="702" as="sourcePoint" />
            <mxPoint x="600" y="702" as="targetPoint" />
            <Array as="points" />
          </mxGeometry>
        </mxCell>
        <mxCell id="qWDempu_S3Mu_BySNkmg-39" value="0" style="edgeLabel;html=1;align=center;verticalAlign=middle;resizable=0;points=[];fontSize=8;" parent="qWDempu_S3Mu_BySNkmg-38" vertex="1" connectable="0">
          <mxGeometry x="-0.7446" y="1" relative="1" as="geometry">
            <mxPoint x="-56" y="11" as="offset" />
          </mxGeometry>
        </mxCell>
        <mxCell id="qWDempu_S3Mu_BySNkmg-40" value="" style="endArrow=classic;html=1;rounded=0;" parent="1" edge="1">
          <mxGeometry width="50" height="50" relative="1" as="geometry">
            <mxPoint x="240" y="702" as="sourcePoint" />
            <mxPoint x="240" y="542" as="targetPoint" />
          </mxGeometry>
        </mxCell>
        <mxCell id="qWDempu_S3Mu_BySNkmg-41" value="0.5" style="edgeLabel;html=1;align=center;verticalAlign=middle;resizable=0;points=[];fontSize=8;" parent="qWDempu_S3Mu_BySNkmg-40" vertex="1" connectable="0">
          <mxGeometry x="-0.0083" y="1" relative="1" as="geometry">
            <mxPoint x="-14" as="offset" />
          </mxGeometry>
        </mxCell>
        <mxCell id="qWDempu_S3Mu_BySNkmg-42" value="M(Y)" style="text;html=1;align=center;verticalAlign=middle;resizable=0;points=[];autosize=1;strokeColor=none;fillColor=none;fontStyle=1" parent="1" vertex="1">
          <mxGeometry x="180" y="522" width="50" height="30" as="geometry" />
        </mxCell>
        <mxCell id="qWDempu_S3Mu_BySNkmg-43" value="" style="endArrow=none;html=1;rounded=0;fontColor=#FF6666;fillColor=#ffe6cc;strokeColor=#d79b00;strokeWidth=3;" parent="1" edge="1">
          <mxGeometry width="50" height="50" relative="1" as="geometry">
            <mxPoint x="340" y="700" as="sourcePoint" />
            <mxPoint x="420" y="542" as="targetPoint" />
          </mxGeometry>
        </mxCell>
        <mxCell id="qWDempu_S3Mu_BySNkmg-44" value="1" style="text;html=1;align=center;verticalAlign=middle;resizable=0;points=[];autosize=1;strokeColor=none;fillColor=none;fontSize=8;" parent="1" vertex="1">
          <mxGeometry x="580" y="702" width="30" height="20" as="geometry" />
        </mxCell>
        <mxCell id="qWDempu_S3Mu_BySNkmg-45" value="" style="endArrow=none;html=1;rounded=0;fillColor=#ffe6cc;strokeColor=#d79b00;strokeWidth=3;" parent="1" edge="1">
          <mxGeometry width="50" height="50" relative="1" as="geometry">
            <mxPoint x="420" y="542" as="sourcePoint" />
            <mxPoint x="500" y="700" as="targetPoint" />
          </mxGeometry>
        </mxCell>
        <mxCell id="qWDempu_S3Mu_BySNkmg-46" value="" style="endArrow=none;html=1;rounded=0;fillColor=#dae8fc;strokeColor=#6c8ebf;strokeWidth=3;" parent="1" edge="1">
          <mxGeometry width="50" height="50" relative="1" as="geometry">
            <mxPoint x="240" y="542" as="sourcePoint" />
            <mxPoint x="380" y="700" as="targetPoint" />
          </mxGeometry>
        </mxCell>
        <mxCell id="qWDempu_S3Mu_BySNkmg-47" value="1" style="text;html=1;align=center;verticalAlign=middle;resizable=0;points=[];autosize=1;strokeColor=none;fillColor=none;strokeWidth=1;fontSize=8;" parent="1" vertex="1">
          <mxGeometry x="210" y="542" width="30" height="20" as="geometry" />
        </mxCell>
        <mxCell id="qWDempu_S3Mu_BySNkmg-48" value="" style="endArrow=none;html=1;rounded=0;fillColor=#d5e8d4;strokeColor=#82b366;strokeWidth=3;" parent="1" edge="1">
          <mxGeometry width="50" height="50" relative="1" as="geometry">
            <mxPoint x="600" y="542" as="sourcePoint" />
            <mxPoint x="460" y="702" as="targetPoint" />
          </mxGeometry>
        </mxCell>
        <mxCell id="qWDempu_S3Mu_BySNkmg-49" value="LW" style="text;html=1;align=center;verticalAlign=middle;resizable=0;points=[];autosize=1;strokeColor=none;fillColor=none;" parent="1" vertex="1">
          <mxGeometry x="220" y="512" width="40" height="30" as="geometry" />
        </mxCell>
        <mxCell id="qWDempu_S3Mu_BySNkmg-50" value="MW" style="text;html=1;align=center;verticalAlign=middle;resizable=0;points=[];autosize=1;strokeColor=none;fillColor=none;" parent="1" vertex="1">
          <mxGeometry x="400" y="510" width="40" height="30" as="geometry" />
        </mxCell>
        <mxCell id="qWDempu_S3Mu_BySNkmg-51" value="HW" style="text;html=1;align=center;verticalAlign=middle;resizable=0;points=[];autosize=1;strokeColor=none;fillColor=none;" parent="1" vertex="1">
          <mxGeometry x="580" y="510" width="40" height="30" as="geometry" />
        </mxCell>
        <mxCell id="qWDempu_S3Mu_BySNkmg-52" value="0.5" style="text;html=1;align=center;verticalAlign=middle;resizable=0;points=[];autosize=1;strokeColor=none;fillColor=none;fontSize=8;" parent="1" vertex="1">
          <mxGeometry x="405" y="702" width="30" height="20" as="geometry" />
        </mxCell>
        <mxCell id="qWDempu_S3Mu_BySNkmg-53" value="X" style="text;html=1;align=center;verticalAlign=middle;resizable=0;points=[];autosize=1;strokeColor=none;fillColor=none;" parent="1" vertex="1">
          <mxGeometry x="600" y="440" width="30" height="30" as="geometry" />
        </mxCell>
        <mxCell id="qWDempu_S3Mu_BySNkmg-54" value="Y" style="text;html=1;align=center;verticalAlign=middle;resizable=0;points=[];autosize=1;strokeColor=none;fillColor=none;" parent="1" vertex="1">
          <mxGeometry x="600" y="702" width="30" height="30" as="geometry" />
        </mxCell>
        <mxCell id="qWDempu_S3Mu_BySNkmg-71" value="" style="shape=image;verticalLabelPosition=bottom;labelBackgroundColor=default;verticalAlign=top;aspect=fixed;imageAspect=0;image=data:image/png,iVBORw0KGgoAAAANSUhEUgAABJcAAAEqCAYAAACoZbHkAAAAAXNSR0IArs4c6QAAAARnQU1BAACxjwv8YQUAAAAJcEhZcwAADsMAAA7DAcdvqGQAAKOBSURBVHhe7d0HfFNlFwbw0yZpuicdtLRAS2kp4AL3QMWFeys4cG/BgVsRRQXcigsc6OcARUWcKIii4gJFBTooFAqUDrr3yPjuee97M9oU2tKRNM/f3zXJvZc2SbPuk/Oe18eqIAAAAAAAAAAAgC7wlacAAAAAAAAAAACdhnAJAAAAAAAAAAC6DOESAAAAAAAAAAB0GcIlAAAAAAAAAADoMoRLAAAAAAAAAADQZQiXAAAAgGbMmEE+Pj7y0p5p+5aWlso1/c+QIUPo9NNPl5f6Xmfuc77uV1xxhbzknX788Udxf/EpAAAA9DyESwAAAH3s7bffFgfCa9eulWucHXvssTRq1Ch5qfc88cQT9Nlnn8lL3YeDD769oaGh1NDQINfa5ebmiu28PP3003It9BUt2HK1vPbaa3KvvvHKK6+I5w8AAAD0LYRLAAAA4FJPhUtMr9dTfX09ffHFF3KN3fvvv0/+/v7yEnRWTk4Ovf766/JS93n11Vfp3XffdVrGjx8vt/aN9sKlY445RgSXfAoAAAA9D+ESAAAA9Dqj0SiCiYULF8o1dh988AGddtpp8lL/ZTKZqLm5WV7qPnzfGgwGean7nH/++XTppZc6LampqXKre/H19RUBJZ8CAABAz8M7LgAAgId67733aMyYMRQQEECRkZF08cUX044dO+RW1c8//0wXXHABJSUlidAhMTGRbr/9dpfD0RzxkKe6ujp65513bEOgWvfxqaysFOvCw8MpLCyMrrzySlGN1FGTJk2ib775RvwczZo1a8SwON7mCu972223idvBt2fYsGE0Z84cslgscg+ibdu2ievLQ+pefvllSk5OpsDAQDrppJPE/WO1WmnmzJk0aNAgcd+dddZZVF5eLv+1s++++44OOOAAEVRkZGTQp59+KrfYdfY6Pf/885SSkiL2zczMFNvnzp1LI0eOFNczIiKCxo4dK0K21jpyn7fuuaQNu/zpp5/o+uuvp6ioKDEk8fLLL6eKigq5V9dpt81VBRGv52F1Gm2I3ebNmzv02OHH+CGHHGK7X7gSif8mjG/nxo0badWqVeJn8sJDSFl7PZcWL15se84MGDBABGQFBQVyq4qvV3BwsFh/9tlni/PR0dE0bdo0MpvNci/VokWLxM8LCQkR9+no0aPphRdekFsBAAC8B8IlAAAAN1FVVSUaNrdeWlpa5B52jz/+uAgHuHLk2WefFeHG999/Lw6+HcMaPpjmg/Ybb7xRBBgnn3yyOOV/uyc85InDj6OPPto2BIqDCUcXXngh1dTU0KxZs8R5DhceeeQRuXXvzj33XBEAOAY2HKikp6fTQQcdJNfY8e0YN26cCBz4+r/44ot05JFH0n333Ud33HGH3MuOh9fxsKlbb72V7rzzThFC8PV88MEHadmyZXTPPffQddddJ4bmcXDQGodcF110EU2YMEHcRh7Kx0Hd8uXL5R6dv04LFiwQ9z//3meeeUaEgjyEbcqUKSK84uCJ70MOtP744w/5r+z25T6/5ZZbKCsrSwQ8fF35/uHwhMO2juAAzvFxuS/BVEduB1++7LLLRBXWo48+Ki5zgLdy5Uqxne8rDgj58aI9Rh944AGxzRX+Hfy7dDqd+L3XXnuteOwdddRRTs8ZxiESP1c4iONAkP/G/PeaP3++3IPE42DixIki9OIwcfbs2SLcWr16tdwDAADAiygfKAAAAKAPLViwgI/u97iMHDlS7m21btu2zaocIFsff/xxuUa1fv16q16vd1pfX18vz9kpB9ZWHx8fa35+vlxjtT788MPi9zgKCgqyTp48WV6y0/a96qqr5BrVOeecY1UOxuWl9vHP5J/Nzj//fOv48ePFeeWA3hoXF2d95JFHrFu3bhW/46mnnhLb2MyZM8W/27Rpk1yjuvfee8X9sX37dnFZ+7fR0dHWyspKsY7dd999Yv3+++9vbWlpkWut1okTJ1r9/PysjY2Nco3VOnjwYLHvJ598ItdYrVVVVdaBAwdaDzzwQLmm89cpNDTUWlJSItZpzjrrLKe/ryuduc/5ujv+3bTH15gxY6zNzc1yrdX65JNPivVLly6Va1zTfnfrhX8P024b/57WeD3/e01Hb0dubq7V19dXrOfHhSOLxSLPWcX9Nm7cOHnJ7ocffhC/h08Z3+6YmBjrqFGjrA0NDWId+/LLL8V+06dPl2vUxyeve/TRR+UaFf/d+T7UTJ06Vfw9TSaTXAMAAOC9ULkEAADgJngIF1dDtF72228/uYeKqy14yBVXYThWksTFxYlKJuWAWu5JYviPhoe58X5HHHGEqFZZt26d3NI1N9xwgzyn4iqnsrIyqq6ulmv2joe/8dCloqIiUZHCp+0NieMqLP4dXCnieLtPOOEEUWnCw74ccZURD7nSHHrooeKUh0JxFZKG13Pvo9bDo+Lj4+mcc86Rl8g2lIzvN76erLPX6bzzzhNDrBzx0LCdO3eKIYF7sy/3OVdLOfZi4mo2vh++/vpruWbPPvnkE6fHJVc+ddXebgc3kufH+PTp09v0TeJqt87imRhLSkropptucmoWz729uPLpq6++kmvsXF3HvLw8eUn9u/Fziu8LAAAAb4dwCQAAwE1wbxkOJVovHFw44uFaHA5xkMRBhePCw574IFqzfft20UOGh19pvWN4iA/jYXj7gvs4OdKuZ2eGS5166qmiX82HH34owoqDDz5Y9CxyhW83D2drfZv5PmKOt5u1vn5a0MRDqxxp61tfb74erYOM4cOHi1PuM8Q6e52GDh0qz9nx8Dz+2/Dfn/+mN998c7tDq/blPm/dfJt/58CBA223ZW94yKXj45KH/3XV3m7Hli1bRKjEQwW7Q35+vjhNS0sTp444XNK2aziA4r+jI76OjvczB1X8eOBhkzw876qrrhKPBQAAAG+EcAkAAMDDcEUHhx58IOtYSaIt8+bNE/tx5cyJJ54oqjI4wOBqEN6uNV52bDjdFdy7xhUOvjqK+zpx7yVuHL5kyZJ2q5YYX1++Pa1vr7ZwVZCj9q5fd1xvTWevk2MlmWbEiBGUk5MjmkNz/x+uEOLThx9+WO5h153Xvbu0V0nEj7/2uOPtcNTe9XMUExND//zzD33++ed05plniopBDpomT54s9wAAAPAeCJcAAAA8DM80xgfhXAXjWEmiLYcddpjYb/369bRp0ybRiJjDJZ4VjbfzcK+O6Mrwo67gQImHmnGDZ57xrj18u2tra9vcXm1pXQ2zr3hGs9ZhB9+fjGcqY911nYKCgkTzcG74zdVmPFyLm7Y3NjbKPfYdV1k54utdWFhouy1dpVUdtW6K3boaqDP4fuXgTptNrz0dfYwOHjxYnHKI1xqv07Z3lp+fH51xxhmicTxXW3HT+//973/isQMAAOBNEC4BAAB4GK704coKnj2rdfjBl7l3DdOqLxz34fMdnSqdA4/WgUFPOO6442jmzJn00ksvib5R7eEeU7/99ht9++23co0dX0+TySQvdY9du3aJaioN9wPi4IBnctOuZ3dcJ+3vpeHAgoeD8d/K1UyBXcUznTn+vFdffVVcP6622Rfci4qn9W/dX4oDl67iWex4WBzPEte6ws7x8dzRx+jYsWNFpdFrr71GTU1Nci3RN998I4aScpjXWa3/bnx9tf5ojr8DAADAGyBcAgAA8DBc1fHYY4+Jaft5+NRTTz0lDpq5Ool7ynD1C+NeMrwvT7P/xBNPiPDm+OOPF82jO2LMmDG0YsUKevbZZ8WQLVdT43cHPih/8MEHRYPpPbnrrrvooIMOotNPP11MI8+3mauyuKcU97zp7iCM++lcffXVdN9994lp7/m+Li4uFlPOa7rjOp100kki3OC/0Ztvvin+Xi+++KJYx/2ougs3LR8/frx4HNx666107733itvEQ7r21TXXXCOCOD7l+0Br1N5V3O/qgQceED+TG2nzfcrXm4ec3X///XIv9TH633//iecDP0a5Kbwr3Mh8zpw5Yl/uOcYBK/+c888/X1Ru3X777XLPjuPbyj+LQ17+u3Hzcb7OHD7yUEcAAABvgnAJAADAA3EwwL15OJjhg1sOJLj3CwcVWljAB9RffPGFONidNWuW2I+bOnP1TUdwqMQH7xz8TJw4UVS69KXAwEBatWqVCHQ4uJg6daoIeni4F982x5nhugPfV9xonGdT4/ubq3748sknnyz36J7rxEOpeIga39/czJt7Y02ZMoXee+89uUf34HCGQw8OQbjvFv9Nly5d2i3DH/lnchD38ccf09133y36LXFV0L7gqqW33nqLGhoaRGjDv4OH2nFApuF13BT+ySefFLeH/017OPDjvx+HbBzEcm8yng3wl19+ETO/dRbPOsiNv7lCi5t7c98wHtrIt5uflwAAAN7Ex+pYWwwAAAAA/QoHSVdeeSWtWbNGDA8DAAAA6G74WgUAAAAAAAAAALoM4RIAAAAAAAAAAHQZwiUAAAAAAAAAAOgy9FwCAAAAAAAAAIAuQ+USAAAAAAAAAAB0GcIlAAAAAAAAAADoMo8cFmexWGjXrl0UEhJCPj4+ci0AAAAAAAAAAHQHjotqamooPj6efH33XJvkkeHSzp07KTExUV4CAAAAAAAAAICesGPHDho0aJC85JpHhktVVVUUHh4ubmBoaKhcCwAAAAAAAAAA3aG6uloU9lRWVlJYWJhc65pHhkt8A/mGcciEcAkAAAAAAAAAoHt1JntBQ28AAAAAAAAAAOgyhEsAAAAAAAAAANBlCJcAAAAAAAAAAKDL+rzn0uzZs+m+++6jqVOn0vPPPy/X7hl6LgEAAAAAAICnMpvN1NLSIi8B9A2DwUA6nU5eaqsz2Uufhktr1qyhCy+8UFzJ4447DuESAAAAAAAA9Ft8+F1UVCRm3wJwBzwTf1xcHPn4+Mg1dh4RLtXW1tJBBx1Er7zyCj322GN0wAEHeGW4ZGlqIl+jUV4CAAAAAACA/qqwsFAESzExMRQYGOjygB6gN3AUVF9fTyUlJSJgGjhwoNxi5xHh0uTJkykyMpKee+45OvbYY/cYLjU1NYlFwzcwMTGxX4RLeWefQ5aaGvLPGKEsGWQcoZ4alBcbAAAAAAAA6B94KNymTZtEsBQVFSXXAvStsrIyETANHz68zRC5zoRLfdLQe9GiRfT333/TrFmz5Jo94/34BmkLB0v9gbW5mZq2bKGWggKqWb6Cdr/wIu284UbafMw42nTU0bT9uuuo5Lnnqfrb76h5xw6RLAIAAAAAAIDn0XosccUSgLvQHo/72gOs1yuXduzYQWPHjqXly5fTfvvtJ9Z5c+WSWbkNjVnZypJFjZmZymkmNedtJbJY5B52vspt9U9PF5VNotJpxAjyGzqUfPR6uQcAAAAAAAC4o8bGRtq6dSsNVY7h/P395VqAvrWnx6VbD4v77LPP6JxzznEqt+LyQB5r6uvrK0KkPXUrZ525gZ7I0tBATTk51JCZSU0cOm1UTnNzyeoiSfRR/vjGtOFq4CSG1I0k4/BU8vXzk3sAAAAAAABAX0O4BO7IY8Olmpoays/Pl5dUV155JaWnp9M999xDo0aNkmvb19/DJVfEELq8PBE02aqcsrPJWl8v93Cg15MxJcUeOI3MIGNaOumCg+QOAAAAAAAA0JsQLu2bIUOG0G233SaWrvjxxx/FLPUVFRWigTWouitc6vWeSyEhISJAclyCgoJEQ7OOBEveysfPTwyJCz/vXIp78AEa8sH7lLbmT0r++muKf+Zpirz6Kgo64nDSKX94MplE5VPVkiVU/MQTlH/JpbTp4INpyykTqOCOO6jsjTeodvVqMilPKgAAAAAAAIA9ueKKK8RoI14MBgPFxsbSiSeeSG+99RZZXLR06QszZsywXUe9Xi/CqNtvv13MVN+T+PfxCC1v1ycNvaF7+Oh0ZEweSmGnnUaxd91FScoTO/X332jYyu9p0Msv0YCbbqLg444jvfLEJ6uVmrdto+qvv6GSp5+hHVdfQ7mHH0G5xx1PO266mXa/9DLVrFxJLUVFaBwOAAAAAAAATk455RQqLCykbcpx5TfffCOqgKZOnUqnn346mUwmuVffGjlypO06zpkzh+bPn0933nmn3Ao9yS3CJS5Pa6+ZN3SOSJLj4ylk/HiKnnIrJb76CqWu+pFSV/9Cia+/TtF33EEhyouCYXCS2N+kPPFqV66k0pdeop033Uybjz2Oco84krZffQ2VPPMMVSsvGhxKWd0kjQYAAAAAAIDeZzQaKS4ujhISEuiggw6i+++/n5YuXSqCprffflvuRVRZWUnXXHMNRUdHi6FUxx9/PP37779yK9GWLVvorLPOEtVPwcHBdPDBB9OKFSvkVhVPjX/GGWdQQECAGK71/vvvyy17xhVLfB0HDRpEF110EV1yySX0+eefy63OeAr+iRMnitvDM6aNHj2aFi5cKLeqePKxKVOm0N13302RkZHiZ3OFlIaroxj3leZjce2yN0LlkpfQR0VR8NFH0YDrrqVBzz9Hw779loav+ZMGv/s/ir3/PgpTntzG4cOJdDoyV1RQ3erVVPb6G1Rw+x1iON2mgw+hbZdeSkWPP0GVSz6jxpwclw3GAQAAAAAAoGN41Eh9s6lPlu4YscLB0f7770+ffvqpXEN0wQUXiHCIQ6e//vpLBFHjx4+n8vJysZ2HqZ166qn0/fff07p160RFFAdJ27dvF9sZD8PjmeZ/+OEH+vjjj+mVV14RP7OzOJxqbm6Wl5xxr6ExY8bQV199RRs2bKDrrruOLrvsMvrzzz/lHqp33nlHtPL5448/6Mknn6RHH31UzH7P1qxZI04XLFggKqa0y96o1xt6dwdvbOjdWyzKE4xnpnNsHM79m7iheGvcB4oDKdE4PGOEaB5uTEsjXzSnAwAAAAAAcOKqcTKHPBnTvxXne1vmoydToJ9eXtozDnu4IslVb6GLL76Y/vvvP8pUjh1/+eUXOu2000QQxJVOmmHDhonqHw5wXOH+yzfccAPdcssttGnTJkpTjis55OGqJpadnU0jlOPN5557rt2G3lxRxNfvn3/+EZc52OLgiquPFi9e3KGG3jzEjycbe/rpp8Vl/rc8u/3PP/8sLrNDDjlEhGqzZ88Wl7liacmSJXT22WeLy57GYxt6g3vjYChg9GiKuPgiGvjIDBq6+CNK+2stDV26lAbOnkWRky+nwLFjyTc4WAROjRs2UOVHH1HRjEdo20UXU86YsZR3xhm06557qOztt6lOeUEw19TInw4AAAAAAAD9CdercMDCePgbVybxhF085E1bOLzg4XCMt0+bNk2ERRzy8PasrCxb5RKf5+FtXFWk4cCnIzO8rV+/Xvw8rljiEOjwww+nl156SW51xqHRzJkzxXA4HvLG/+7bb791qqBi++23nzynGjhwYJeqqPo7VC5Bl3APppadO0VlU2OmWuHElU7msjK5hzNDUpKobBLLyAxxqh8wQG4FAAAAAADo31xViPDheEOLWZzvbQEGnS0U2ps9VS5x+JKkHO99+eWXoon23LlzRZVQaxwODVCOAblCiYeVcXUQVzRxEHT++eeLKiHuxcx9nPhyU1MT+fra62EiIiLo4Ycf3mPl0kcffSR6LHE4FR8fT35+fnKr2uvZsXKJK4/4OvDv5ICJh77xz+Z/q91Ovk4HHHCAU49orlDif6/1mULlkgqVS9AlPsqT3E95AQk95RSKueN2SnrjdUr95WcatmoVDXr1FRow5VYKPmG8aC7OWrZvp5pvv6XdypNyx7XXUe5RR1PuMeNox/U30O4XX6SaFSuopaAAM9UBAAAAAIDX4GCCh6b1xdLRYGlPVq5cKaqFzjvvPHGZ+ysVFRWJgIaDI8eFgyW2evVqEVZxE2wOdbhJNs/upuEqJZ59joe1aXJyckS4tTccJvHv4sbajsGSK3w9uLH4pZdeKvpGJScniyF5nWUwGEQVlLdDuATdhl+cDLExFHLccRR9002U+NJLNGzl95T626+UtOAtirlrGoWedhr5DR3KO5OppIRqV62i0ldepZ233Eqbx59AuYcdTvlXXknFTz1FVV9+RU15WzFTHQAAAAAAQB/jSiIOjgoKCujvv/+mJ554QoQz3Kfo8ssvF/uccMIJYigaV/F89913IjT69ddf6YEHHqC1a9eKfVJTU0UDcO6NxMPoJk2aRBaHYz7ut8S9kq6//nrRRJtDJp59jiucuhNfD66g4uvHQ/H49xUXF8utHcdBFjcn5/uGq6K8FcIl6HH6iAgKUl5goq6+mhKeeZpSvvma0tauocEfvE+xDz5IYeeeS8YRI3jeSDJXVVH9b79T+Ztv0a5p0yjv1FMpZ+zBtG3SJVQ08zGq/ORTMfzOVYNxAAAAAAAA6BnLli0T/YY4TOHwh2dye/HFF8UwNp1OJ/bhgoOvv/6ajjnmGLryyitp+PDhouF3fn4+xcbGin2effZZMcTtiCOOELPEnXzyyaLiyRHPvsbD2saNG0fnKseL3Ag8JiZGbu0eDyrHovx7+ffz8DeuoOrK0LZnnnlGhFSJiYl04IEHyrXeBz2XwG1YmpvVmep4hrqsLHXGOp6prrFR7mHnYzCQMTWVjDxLHc9Wx72ceKa6wEC5BwAAAAAAgPvYU28bgL7SXT2XEC6BW7OazdS8bVubxuEW5THQBveB4ieEFjaJ03TSKY8VAAAAAACAvoRwCdwRwiWES16LH7Lc/FsNnNSwqSkzi0y7d8s9nBkGDZJhkxo48RA8QzeXVAIAAAAAAOwJwiVwRwiXEC5BKxwucdDkWOXUsnOn3OpMFz3AobpJWUZmkCEhoVtmTAAAAAAAAGgN4RK4I4RLCJegA7hBeGNWtj10ysqk5rytRC5moPNVHkv+6elq4CSrnHiYnY9sTgcAAAAAANBVCJfAHSFcQrgEXWRpaKCmnBynKqemTZvI2tIi97DzUZ5c3Cjc3jg8g4zDU8nXz0/uAQAAAAAAsHcIl8AdIVxCuATdyMoz1eXlqTPUcegkF2t9vdzDgV5PxmHD7MPqMkaQMS2ddMFBcgcAAAAAAABnCJfAHSFcQrgEPcxqsVBzfr6sbsqkJg6cNmaKoXZt+PiQ3+DBtrCJT7lxuD4iQu4AAAAAAADeDOESuCOESwiXoA/w08VUWGgbTqcFT6aSErmHM338QLVhuEOVkz42Fo3DAQAAAAC8DMIlcEcIlxAugRsxlZXZwybZy6ll+3a51ZkuMtIpbOJTQ2Ii+fj6yj0AAAAAAKC/QbgE7gjhEsIlcHPmmhoRNInhdDJ44r5OZDbLPex8g4LIOELOVMeVTjysLiWZfPR6uQcAAAAAAHgyhEuqIUOG0G233SaWnsSjRZYsWUJnn322XNPWFVdcQZWVlfTZZ5/JNb2jt+6DjuiucAmlEgA9RBcSQkGHHEKRkydT/JzZlPzF55T211oa8tGHFDdjBoVfeCH5jx5NPn5+ZKmro4a1f1HF/96lwvvuo61nnUU5B42hrRdcSIXTH6aKRR9Sw3//kUV54gMAAAAAAPSmY4891mUQ8vbbb1N4eLi85L62bdsmwqZ//vlHruk52u/SlqioKDrppJNo3bp1co+ewUHZnoK0noZwCaAX+fr7U8B++1HExRfRwEcfoaGLPxKB09ClS2ngrFkUcfllFDh2rKhk4hnsGtevp8qPPqKiGTNo24UXUc6YsZR3xpm06557qPydd6juzz9FhRQAAAAAAAC4jxUrVlBhYSF9++23VFtbSxMmTBBVUv0VwiWAPuZjMJB/2nAKP+dsirv/fhr83rs0fM2flPLtMkp47lmKuvZaCjrySNGriYfUNeXmUtXSz6l41mzafvlk2nTwIbT5pJNp5223U+m8+VT78y+iBxQAAAAAAEBv0qpnnn76aRo4cKCo2rn55puppaVF7qGqr6+nq666ikJCQigpKYnmz58vt6h27NhBF154oaiKilSOg8466yxREaRZs2YNnXjiiTRgwAAxbGvcuHH0999/y61t8ZAvduCBB4pqIq7EctTe9X300Udp1KhR4ryjAw44gB566CF5yTX+WXFxcTR27Fjx84uLi+mPP/6QW509++yzNHr0aAoKCqLExES66aabRCCl0SrEOKgaMWIEBQcH0ymnnCLCKzZjxgx65513aOnSpbaKqR9//FFs6y0IlwDcEDf39hs8mEInTKCYO++gpDffoNTVv9CwH3+gQa+8QgNuvYWCx48nvfICyLh5eM2yZbT7uedox7XXUu6RR1HuMeNoxw030u4XX6SaFSuopaBAzHYHAAAAAABugj+fN9f1zdJDxwY//PADbdmyRZxy4MHBCC+OnnnmGRG68FAxDlJuvPFGysnJEds42Dn55JNF8PTzzz/T6tWrbWFKc3Oz2KempoYmT55Mv/zyC/3++++UmppKp556qljvyp9//ilOtWqiTz/9VFxme7q+HIBlZWWJMEvD1/m///6jK6+8Uq7Zu4CAAHGqXf/WfJXjvxeV47aNGzeK67By5Uq6++675VYVB3IcUr377rv0008/0XblGHDatGliG59yGKcFTrwcccQRYltv6VJDb2741JcNyNDQG8DOVFEhm4Zn2hqHN+fnu3yz0CnPG6OcoU5rHO43ZDBmqgMAAAAA6GEuGydzyPNEvHq+t92/i8gvSF7YM6704Wqd559/Xq5RcQjDvZi04V5cucQVMxzW6HQ6sY5DDw5PFi1aJC5zM+ujjz5ahCSMIwmu8HnkkUfohhtuoPfee48ee+wxEepwBQ7jUIYrd7jxNvcvas1isYjtH3zwAZ1++uliHf9braE3Vz3x/c7BEN8OTUeuL4dWfJ1feeUVcXnKlCm0fv16EUa50vp38X3DIdXy5ctp8+bNFBsbu9eG3h9//LG4L0pLS8Vlvp85zOJ/n5KSItbx9eHKqqKiInG5q83Je72hN/+xZs6cSQkJCSI1zONZrxRcCvbmm2+K8wDQ+/QRERR0xBEUdc01lPDsM5Sy7BsavmYNDf7gfYp94AEKO/dcMqanKzvqyay8KNT/9juVv/kW7Zo2jfKUF8qcsQfTtomTqGjmY1T5ySdihjvu9wQAAAAAANBZI0eOtAU1jIeblZSUyEuq/fbbT55TQyAOl7R9/v33XxGicOUSZw+88NA4DkE4BGI8xOzaa68VFUscfnDwwcPIuJqns/Z2ffn3LFy4UPx+Drk4wOKwaG+4coive4RyvMa36cMPPxTBkitcUTV+/HiRt/Dtvuyyy6isrExUK2kCAwNtwRJzdb/2pQ6HS5wcclr25JNPkp+fn1xLYvzhG2+8IS8BgDvQBQdR4EEHUeRll1L8E49T8mdLKO3vv2jIxx9T3MxHKXzixRSw//7k4+9PVuUFq2HdOqp4/30qfOBB2nrOuaJx+NZzz6NdDz5I5cqLZ72y3eLwwgYAAAAAAN3AEKhWEPXFwr+7gzi84eqV1rhShsMdRwaDQZ5TcXjExSqO9rQPh0RjxowRM7s5Lps2baJJkyaJfXhIHK974YUX6NdffxXnucdRe8PO9mRv1/eMM84go9EoqqC++OILMWzv/PPPl1vbx2ESh0oVFRUiFOMKKFe40omrrThw++STT+ivv/6il19+WWxzvD2urqc7tT3pcLj0v//9TzTZuuSSS5xSvf2VA9Ts7Gx5CQDcla+fHwWMGkkRF1xAAx9+mIZ8uIjS1q6h5C+/oPgn51DkFVdQ4KGHkm9ICFmVF0weXlf18SdU/OhMyp84SVQ4bTntdCqYdheVvbWA6n7/XVRCAQAAAABAF/n4qEPT+mLh391BaWlpLhtm87rhw4fLS93joIMOotzcXIqJiaFhw4Y5LVqQxX2YeHgaBzZcecThjzaEzBWtQMZsNovTztDr9SLMWrBggVguvvhiWw+lPeHG3FxpxMP19oTDJA6zuA/VYYcdJu7PXbt2ya0dx7exK7evu3Q4XCooKBB/zNb4Tmjd+R0APIOP8kJp5BfpM8+k2HvvocHvvE3D//yDUlYsp4QXXqCoG66noGOOJt2AAfxkp+YtW6j6yy+p5MknafsVV9KmQw+jzeNPoJ23TqHSV1+l2lWrqMWNSjMBAAAAAGDfccNtrhziQIebWXPzbZ7hjIeL3XnnnXKv7sEFLTwLHM8Qxw29uR8Q90Xi371z506xDw+H455N3JeJZ2Djf7OnwIeDKt6+bNkyMaTOVRXWnlxzzTWiyTb/+44MiesMzlk4U5k7d65oP8S367XXXpNbO477OGl/Gw7aejun6XC4lJGRIf6wrXGjKZ7ODwD6By6v9Bs0iEJPPolibruNkubPp+G//EzDflpFifNeo+ipUyjkxBPJkJAg9udZ6GqWL6fdL7xIO66/gTYfM442HXU0bb/uOip57nmq/vY7at6xw61KNgEAAAAAoOOSk5PFDGU8aumEE06gQw89lD766CNavHixmKGsO3FvIf5dSUlJdO6554qp96+++mrR80hrKs19n3m4GVc5cX8iDp44QGoPVx/xbGzz5s2j+Ph4EVx1BodZ3EMpPT1d3PbuxKPBOKibM2eOaDv0/vvv06xZs+TWjuPeUFxhxrPwRUdHi+qu3tTh2eKWLl0qSsHuu+8+0ZGcO7lzIsbD5b788ks6UTnY7C2YLQ7APfCwuMasbHWmOjljXfPWraLKqTVf5bnqr7wYi5nqRvJsdSPIb+hQ8nEYZgsAAAAA0F/taVYucG8cm3DAdNNNN9Edd9wh1/YP3TVbXIfDJcaVSxwscVMqbrLFKeH06dNdTgXYkxAuAbgvbvzdmJMjwqYmDpw2ZlJTbq7o49SaT0AA+Q8fLsIm44gRIngyKi/a3B8KAAAAAKA/QbjkmXbv3k2LFi0ShTY7duwQs7/1J30SLrkLhEsAnsXa3ExNW7ZQY6Za3SSqnLKzxUx1bRgMog8UVzaJhauc0tLINyhI7gAAAAAA4HkQLnkmbhvCPaB4Zjpttrr+pE/CJZ5mkHsscZOpadOmUWRkpOgOHxsbSwmy/0pvQLgE4PmsZjM152+nxqxMEThpVU4uZ6DjPlBDhtjDJuWUK530/exbAwAAAADovxAugTvq9XCJu45z4y7+wdu2bRP9lrip14MPPkjbt28XvZd6C8IlgP6JX45MhYVqdZNDlZOpuFju4UwfP1Dt4SSqnNReTvqYGPHtAgAAAACAO0G4BO6o18MlDpa4x9KTTz5JISEhou8Sh0u//vqrKA3jwKm3IFwC8C6msjI1bOLqJhE8ZVLL9u1yqzNdZKQ9cJJVTobERPLx7fDkmAAAAAAA3Q7hErijXg+X+AfyELiUlBSncCk/P19Md8dXqLcgXAIAc00NNWXLmepklVNTXp6ywSz3sPMNDhYz1RkzRsjgKYOMKcnko9fLPQAAAAAAehbCJXBHvR4uxcTE0LfffksHHnigU7i0fPlyuuqqq0TX9N6CcAkAXLEoL4w8Mx33btKqnJpyckRD8dZ8jEYy8kx1DlVOfNlXWQ8AAAAA0N0QLoE76vVw6ZprrqGysjL66KOPRCNv7sGk0+no7LPPpmOOOYaef/55uWfPQ7gEAB1lbWmhpryt9sbhXOWUnU2W2lq5hwPlNc2YkqKGTbLKiRuH64KD5Q4AAAAAAF2DcAncUa+HS/zDzj//fFq7di3V1NRQfHw8FRUV0eGHH05ff/01BfXiNOEIlwBgX1gtFmrZsUOtbuIqJx5ap5w3l5fLPZwZBieJoXS2KqeMEaSPipJbAQAAAAD2DuESuKNeD5c0q1evFkPiamtrRYNvbvTdWa+++qpYtCbgI0eOpOnTp9OECRPE5b1BuAQA3Y1fCk0lJXJIHQdO6rA6nr3OFX1srAyaOHRST/UDB2KmOgAAAABwCeFSx/z444903HHHUUVFBYWHh8u1bQ0ZMoRuu+02sfQWzjD477du3To64IAD5FrP1l3hUoemT2ppaSG9Xk8bNmygI488km666Sa6++67uxQssUGDBtHs2bPpr7/+EpVQxx9/PJ111lm0ceNGuQcAQO/iUMgQG0shxx9H0TffTIkvv0SpP6yk1N9+pcQ336CYaXdS6KkTyG/wYLG/qbiYapU3vtJXXqGdt9xKm48fT7mHHU7br7qKip96iqq++koMx+MqKQAAAAAAT3bFFVeIljitcRDEn6MrKyvlmu739ttv7zFk6k78u/j28OLr6yuyiyuvvJJKSkrkHj2Dg7LebDXUEzoULhkMBkpKSiKzi1mYuuKMM86gU089lVJTU2n48OH0+OOPU3BwMP3+++9yDwAA96CPiKDgI4+kqGuuoYRnn6WUb5fR8LVrafD771Hs/fdT2DnnkDEtTdlRT+aqKqr79Tcqf/Mt2nXnNMpTXuc2jT2Ytk26hIoee5wqP/lUDL9z1WAcAAAAAAD6HlfoFBYW0s6dO+n111+nb775hi677DK5FdrToXCJPfDAA3S/ciBV3k5Pkq7iwGrRokVUV1cn+je50tTUJMqxHJf+4trvrqUrll1Bc/6cQ59v+ZxyK3LJZDHJrQDgjnTBQRQ4ZgxFXn4Zxc96gpKXfkZpf62lIYsXU9yjj1D4xIvJf//9yMffnyz19dTw999U8d57VKi8jm4951zKGTOWtp57HhU+9BCVf/ABNfzzD1kaGuRPBwAAAADwXL/88gsdffTRFBAQQImJiTRlyhRxvK959913aezYsWIW+ri4OJo0aVK7lUFcGcWVQzwsS6somjFjhtxKVK981ubZ6/lncUHM/Pnz5RYSI6RuueUWeUm1e/du8vPzo++//16uaYt/B18v7jPNrXv4+q9YsYIaXHxe5zzj6quvFkPK+PampaXRCy+8ILeqtKqvp59+mgYOHEhRUVF08803ixFi7Nhjj6X8/Hy6/fbbbbfRE3U4XHrppZfop59+Encw32Hcb8lx6az169eLaiWj0Ug33HADLVmyhDIyMuRWZ7NmzRLj/LSFH6D9QYulhf4u/pv+Kv6L3st6jx745QE69/Nz6bAPDqNJX02iR397lBZvWkwbSjdQk7lJ/isAcEe+ymtZwOhRFHHhhTTw4Ydp6IcfUtraNZT8xecU/+Qcipw8mQIPOYR8lTc+nsGO+zlVLv6Yih+dSdsunigCpy2nn04Fd91NZW8toLrf/xCVUAAAAADQf3Hfz/qW+j5ZOtl+uUO2bNlCp5xyCp133nlihvkPlc/EHDY5hjwcqsycOVP0cv7ss89EHyMOYFw54ogjxHAxrZqIl2nTpsmtRM8884wIqrgHErfvufHGGyknJ0ds4xnvP/jgA1GsonnvvfcoISFBBE8dxaGRxWIhk6ltEQiv56Fzixcvpkzl8z33kuaiHJ5l39EPP/wg7hs+feedd8TwO17Yp59+Kn7Go48+aruNnqjDDb0feeQRec61h5WDqc5obm6m7du3iwTy448/pjfeeINWrVrlMmDiB4PjA4Irlzhg8vSG3harRVQqZZdnU1Z5FmWVZYnz9aZ6uYedzkdHyeHJNCJyhLpEjaD0yHQKMvTeLH0AsO/4Jbdl505bw3DbTHWlpXIPZwbljUY0Dh+pzVSXQfroaLkVAAAAADyFq8bJHPIc+sGh4nxv+2PSHxRoCJSX9ozDHw5mWjd85sodvl1a820OdHQ6Hc2bN0/uoVYyjRs3TlQvuWpkzn2YDz74YDErPRegtG7ozSEMN+1u3deJ+xRxhRRXQjH+nM0VR5xdcAELXy8ujnnttdfowgsvFPvsv//+dO6557abX7T+Xbm5uXT66aeL3GHNmjUdaujNQRrPrM85B+P7jm8Th0t83zC+PtzTiUdxsb5oTq7probenZ4trqdwc/CUlBSnB2F7OnMDPQ0HTjtqdoigSQuc+LSyyXWDtMGhg0XIpIVO6VHpFOkfKbcCgKdo4ZnqMjOpKUsLnbKopaBAbnWmix6gzlJnm60ugwwJCR5bQgsAAADgDTw9XCpQPpvyrO+O/vjjD7r00kttQRCHRFyxxH2bNRw58PA1ruwZoXx+5Ym9eGgbVy7xv+PqH97OE3xxsUlnwiUeXnbXXXfJNWp4xFVTXEHEpk6dKiqZli1bRn///be4fnl5eTRYTtLTGv8uHoYXFBQkrhf/zY466ihRDMP9ol2FSy+//DK99dZboniGh85xIQ1v+/PPP8V2vu94ON5XX30lLjO+Xjyaa+XKleIywqVuxGVpPEZSKw3bk/4cLrnCf6Li+mLKLMt0qnLida7EBsaKyibHKidehwNPAM9iVt5AG7OzRdCkVTk1Ky/8youC3MPOV3ktFGGTQ5WTn/IG4SO/HQEAAACAvuXqIJ6P9RpMfdN7M0Af0OFjRA5IONzhYWyOWgdBHB6deOKJok9Ra3y8z0PiONg5+eSTRXVRdHS0CGX4shbYdCZcah3I8L/n/kZaXyYOcHgd9zSaM2cOZSufrZcvXy62ucK/i687B1FcWcQ9knhYnKZ1uMSVRxxG8fA87iHNvZ+eeuopEbr9888/4t+4uu/4OvN2vq2sP4RLHe65FBERQZGRkW0WbkbFYxa5zG3BggVy7z277777RP8m/sPwH5sv8516ySWXyD3AET/h44Li6Pik4+mmA26iucfPpRUXrKBVF62ieSfMo9sOuo1OHnKyqGJiHDr9uONHevXfV2nKD1PoxI9PpGM+PIau++46evavZ2nZ1mW0rWqbqJICAPelU95Mgw47jKKuupISnn6KUr7+SjQOH7zwA4p96EEKO/88MmaM4Ck9yaK88Ncrb2LlyhvirrvuprzTz6Acnqnuooup8JFHqGLxYmrYsJEsmKkOAAAAwG3wsR5XD/XF0hPFB9yPmSuUhg0b1mbhRtoc7pSVldHs2bPFkLb09PS9TvPP/66rM9ePHj1a9GTiWd+4/xI3/94bDpX4+iYnJzsFS66sXr1a9IXifk8HHnig+Hc8/K2z9uU2uosOh0tcVsZ38mmnnSbGMPLC53kdl6JxiRg3z+I/2t7wg+fyyy8XjcHHjx8vxi5+++23IuGEjuPhb0ckHEFXj76anh73NH15zpf028Tf6O1T3qZ7Dr6Hzkw5k4ZHDBf9mnhY3W+Fv9GCDQvorp/uojM+O4MO/+BwmvzNZJr1xyz6bPNnlFOeI5qMA4D78g1UPgwob1yRl1xC8Y89Rsmffkrpf62loUs+pYGPP0YRyvoAZbuPsp+1oYEa/v2XKhcuoqKHptO288+nnIPGUN7Z59Cu+x+g8nffo/q//yaLw+wdAAAAAABddc8999Cvv/4q+g5xZQ73LFq6dKmtoTdXL3GQMnfuXDE87fPPPxfNvfeEq3pqa2vFDG+lpaViCF1ncB8oDrO4Suycc86Ra7tHamqq6BnFecamTZvooYceEvlGZ/Ft5AIcHnrIt9ETdXhYHI9b5PCHS9cccY+k7777jj755BPxAOGp/7gaqSd527C4fcUzzW2u2EyZ5ZmUXaYOq9tUscnlDHQGXwOlRqQ6Danjy1wyCQCew2o2U3N+vjqkLksdUteknHc5A52PD/kNHiz7N6l9nIwjRpA+IkLuAAAAAAD7ak/Dj9xdR4fFMQ5XHnjgAfrtt99EoMO9lS+66CIxixpbuHChOM+zonGlE49kOvPMM9sdFse4kIVnZOOqJ27GzcPeOjIsjnEwFRsbK24D90fak/aG4GlaD4vjice02e+5EmzixIkiq/jmm286NSzu999/p+uvv170h+Kf2cGYplv0es8l7trON57LvBxt3rxZ3Kn8B+Pyr/322090ge9JCJf2nclioq1VW9vMVFfbUiv3sPP18aWhoUNtM9RlRGVQWmQahfrhvgfwJPxyb9q1S8xOJ3o4bVRnqjO1U4qsjx9I/iNk4MSnIzNIHxPTIyXUAAAAAP2dJ4dLnowDIQ64OPTiMAuc9Xq4xOVrt99+u1gcPffcc2LhJlzcFf6kk04S0+71JIRLPYN7MBXUFKhhk7aUZVF5Y7ncw9mg4EG2xuFixjrl/ICAAXIrAHgKU2mpDJy4ykkNnlqU13RXdJGRaoWTQ+NwQ2Ii+fh2eJQ1AAAAgFdCuNS7uHk4VzpNmzZN3O/cHwna6vVwiXspcSnaqaeeSocccohYx8nf119/Ta+99hpdffXVokM6T7f34Ycfiu09BeFS7+GHx+6G3SJk4rBJVDop53fV7ZJ7OIsOiLYFTdqwuvigeFQ6AHgYc02NCJqatCqnTOV8Xp6yoW2jQd/gYPJPTxdhEw+nE8PqkpPJR6+XewAAAAAAwqXepQ2v4/7QH3/8sWjuDW31erjEOOl76aWXxDhAxg25b731VtEdvTchXOp7VU1VathUlq32cirPFjPQWZX/WuPhc47VTXyeZ7bT+WKKdABPYlHeeJo2bbKFTSJ8Ut4PrC5moPMxGsmovEeICifZy8movLH7KusBAAAAvBHCJXBHfRIuuQuES+6pvqVeNArXhtNx4JRbmSv6O7XGDcJ5JjutuolPh4UPI4POIPcAAE9gbWmhprytauCkNQ7PynY9A51OR8aUFFvYJCqc0tNJFxwsdwAAAADovxAugTvqk3CJG3YvWLBATBn4/PPPU0xMjOiCzv2YRo4cKffqeQiXPEezuZm2VG6xBU58ygFUg6lB7mGn99WLgEmrcuLG4RxABRoC5R4A4AmsFovo2aT1bxJVTsqpuaJC7uHMMDhJDZxE83A1eNJHRsqtAAAAAP0DwiVwR70eLq1atYomTJhARx55JP3000+UpRw0JCcn0+zZs2nt2rViDGNvQbjk2cwWM+VX5ztVOPHQuprmGrmHnY/y35CwIWrYFJlB6VHpInwKM4bJPQDAE/Bbjam42BY0iUV5HzEVFso9nOnj4pyG1PEpr0P/NgAAAPBUCJfAHfV6uHT44YfTBRdcQHfccQeFhITQv//+K8IlbuB97rnn0s6dO+WePQ/hUv/DD0NuEq5VN2mhEzcTd4WbhPNwOq3CiU+5mTgOPAE8i6miQgRNauNwNXhqzs/nFwW5h50uPNwWNGmNw/0GD8ZMdQAAAOAREC6BO+r1cCk4OJjWr18vfqFjuLRt2zZKT08XV6i3IFzyHqUNpbagSQuddta6DjKj/KNEZZOocJLNwwcFD0LgBOBhzLV11JSTbQubROPwzZuJTG37t/kGBqpBk2Pj8JQU8jGgfxsAAAC4F4RL4I56PVwaNGgQffTRR2JmOMdwacmSJTRt2jTRj6m3IFzybtXN1ZRTnmOrcuLgKa8qjyxWi9zDLsQQIgInETZx83Bl4WF23N8JADyHpamJmnI3U2PmRjVs4uCJZ6pz8cUGB0s8M51W5cTBE89c5xsQIPcAAAAA6H0Il8Ad9Xq4xAHSH3/8QYsXL6bhyof2v//+m4qLi+nyyy8Xy8MPPyz37HkIl6A1bhCeW5Gr9m8qyxSn3Di8xdIi97Dz1/mLRuFadZOYqS5iGBl1mCIdwJNYTSZq3rZNrW7aqFY48WKpadu/jXx9yS9ZecMUYZMaOHH4pMN7CAAAAPSS/hwuHXvssXTAAQeIib962pAhQ+i2224Ty97sbV8eicV/j3Xr1onr35c6c7u6U6+HS83NzXTzzTfT22+/TWazmfR6vTidNGmSWKfT6eSePQ/hEnQEB0t5lXm26iZteF29qV7uYaf30VNyeLJa3SQDp7TINAoyBMk9AMAT8Ftay86dDkPqlEU5by4tlXs4MwwapAZODlVO+uhouRUAAACg+3hyuHTFFVfQO++8Iy/Z5ebm0rBhw3o1XNq9ezcFBQVRYODeZxXfW2DDmQb/vAEDBoiMo6doIZYmMjKSxowZQ3PmzKEDDzxQrOuJcIn/bpWVlfTZZ5/JNW31erik2b59O23YsIFqa2vFnZCamiq39B6ES9BVPHRue/V2NWySPZz4tLKpUu5hxzPVJYUmiaDJscopwj9C7gEAnqKlpEQNm+TCw+padu2SW51xuGTksMnWx2kkGRLi0b8NAAAA9omnh0s8cmnBggVyjSpa+dzEhSa9ES5xwYufn5+81DF9VQ3UmhYurVixgkaOHCkmRJsyZQrl5eVRdnY2hYeHe3y41OkpdpKSkujUU0+lCy+8sE+CJYB94evjK3ounTL0FLp9zO00/6T59NNFP9Hy85fTC8e9QDfufyMdO+hYig2MJavyX351Pi3btoye//t5un759XTMh8fQiR+fSLeuvJVe+ecV+mH7D1RUVySqJQDAfRliYihE+dATfdNNlPjSSzRs5fc0/PffKOntBRRz110Uevrp5JecTOTjQ6bdu6lu1U9U9to8KpgylbaccAJtOuxwyp+sfKia8yRVffEFNW3ZQlazWf50AAAAgP7PaDRSXFyc09LeCKaKigrRPiciIkJUGE2YMEFUOWlmzJjRZhgaB1McsGg4GDn77LPp8ccfp/j4eEpLSxPreR8txOLjMP5ZnFPw9eP9OLRxVF9fT1dddZXoHc37zZ8/X25RQx/+AvGff/4Rl3/88Udx+fvvv6exY8eK6859p3NycsR2zWOPPUYx/PlS+ZnXXHMN3XvvvR0aVhcVFSXuN/7ZTz/9tAjsuP2QK88++yyNHj1aVGklJibSTcrnWC7y0fAIMg6lvv32WxoxYoSYhO2UU06hwsJCsZ3vF642W7p0qbhNvPDt6ykdCpfq6upo+vTpNGrUKHGF+Q7cb7/96NFHHxV/KABPxk+yuKA4Oj7peLrpgJto7vi5tOKCFfTjhT/SvBPm0dSDptLJQ06mpJAksT+HST/u+JFe/fdVmvLDFBE2jftwHF333XX03F/P0bKty0Qo5arBOAC4D53yZhx02GEUdfVVlPD0U5Ty9VeUtnYNDf7gA4p96EEKO+9cUcFEBgNZqqqoXnnjL1+wgHbddTflnXY65Yw9mLZdPJGKlPfCisWLqWHjRrI0N8ufDgAAALB3HI5YlGPqvlh68gtyDobWrl1Ln3/+Of3222/id3GRSktL2564e8IhDwc7y5cvpy+//FKutfvkk0/oueeeo3nz5onwiit0OJBx9Mwzz4gwh/sqcUBz4403tgmLWnvggQfEv+PbwMPlOJzSvP/++yLw4iFtf/31lwisXn31Vbm14wLkZDNckeWKr68vvfjii7RR+YzJIdHKlSvp7rvvlltVnMdwSPXuu+/STz/9JEaacb9sxqdcFKQFTrxwUNZT9josjm8oXwEeCsdpY3p6unhgZGVl0bJly+iggw4SN8LQi9M+Y1gc9JXa5loxpM42rE5ZuK+T2dq2goH7NaVFpNmG0/HQOu7rZPDFFOkAnsSqvA82bd6sNgzXGodnZ5O1oUHu4YBnqhs2zGFInXLKM9UFoX8bAACAt3M1/IhDnpyDxojzvS3t77/ItwN9ixiHRe+9957TsCnOB3jCL+Y4LI5DHp4EbPXq1bYwo6ysTFTfcEhywQUXiKoaDoK0iiHG/5YXriZi/Ds5c+DAxHE4nOPwMa7u4WCJ8wpXmQTve/TRR4vwhXGWwZVDjzzyCN1www1tGnpzZc9xxx0nhq+NHz9e/Juvv/6aTjvtNGpQPvvx7T/ssMNEWPXSSy+J7eyoo44SVUWOt8dR69/DQ9U4sOLQbLPyOTM2Nnavw+I+/vhjcZ1LZS9Rrly68sorxb9PSUkR61555RVRBFRUVCQuu9WwOE7geDzgv//+S0uWLKFZs2bR7NmzRWkVr+Mr8dprr8m9Afq3YL9gGhs3li7NuJQeP+px+vTMT+n3Sb/TwtMW0vTDp9MFwy+g0QNGi5nn6lrq6O+Sv+n9rPfpwdUP0vlfnE+HvX8YXfzlxfTIb4/QRzkf0frd66nR1HYqdQBwHz7KhxkOisLPO4/ipj9EQxZ+ICqckr/+iuKfeooilQ8GgYcfRr7KGy+1tFBTVhZVffopFT/2GOVPukRUOG2ZcCoV3HEnlb35JtX9+iuZKirkTwcAAADwDBy6cHiiLVxV4woXonC1z6GHHirXqMPBeFgbb+sMrkLaU58lDqo49ElOTqZrr71WZBYmk0luVfGoK40YtRIXRyUlJXKNa47/ZuDAgeJU+zdc9XTIIYeI85rWl9vDYRuPBuPhgpynfPjhhyJYckULuBISEsToscsuu0yEdI6jx3jYnhYsMb6ue7ttPWWv4dKnygfkhx56yDa+0RFXMXG5GCdoAN7KX+9PowaMEsESB0wfnPaBCJw4eOIA6tIRl9KY2DEUbAimZkszbSzbSB9v+phm/j6TJn09iQ774DA6Z+k5dP/P99O7me/SmqI1VNPsYip1AHAbPjodGZUPMWFnnE6xd99FgxcsED2chn2/ghLmvkgDbrqRgseNI31MDH9FRs1bt1L1119TyVNP0/arrqbcw4+g3OOPpx233EK7X36Zan74gVqKi3u0PB0AAADcj09AgKgg6ouFf3dncO8fnhlOW7TQpSt4yFfrzz2uhszx79wTrobisIcrdniYGQ97O+aYY5x+VuuKJg6YLJY9tzBx/De8P9vbv+kIDpM4VOKeVFu2bBFDBV3hSqfTTz9dhFw89I+H372sfGZkjsPoXN22vvo8uddwKTMzU5S4tYfTS94HAOz0vnpKjUilM1POpHsOuYfePuVtWj1xNX11zlf09Lin6ZrR19CR8UdSpH+kGFK3uXIzfZH3BT255km66tur6IiFR9Cpn55Kd/x4B72x/g36peAXKm1wPZU6ALgHfjM3JCRQ6IknUvSUKZQ47zVK/WkVpf7yMyW+Pp+ib7uNQk46iQzKhyBm2lVItSu+p9K5L9HOG2+izeOOpdyjjqbt11xLJc88S9XLllFzfj5Zu+GDDAAAALgn/vzAQ9P6YtFCk+7GzaW5esixUTVX3HAIlJGRIS7zLHM8dMsxCGlvSNnecKh0xhlniEoqHtbGPZ7Wr18vt3Y/LrxZs2aNvKRqfbk9HIZxpRE34t4TDpM4zOK+TzwMj4cZ7mpnpuM94aovcy9NQrPXcInH53EJW3t4G4+/A4A945nqkkKTRHNwbhL+2omviabhK85fQS8d/5JoJn584vE0MEj9BmBHzQ5anr+cXvj7BbpxxY103EfH0fiPxtPN399ML617ib7P/54KagtQ6QDg5vQDBlDw0UfTgBuup0EvvkDDln9Hw//8g5LeeYdi7r2Hws46k4ypw/grPDIrH7zqfvmFyl5/nQpuu522nHwKbTrkUMq/9DIqnjWLKj/7jBo3bSJrq3JvAAAAAHfBs8qfddZZYpjaL8rnGq7UufTSS8XwLl7PuIBl9+7d9OSTT4oKHq7K+eabb8S2zuC+Q2+++aboucTT+nNfKA6bBg8eLPfofrfeeqv4ndw/ivtL8cxx//33X7eGdVwZxtVXc+fOFbeLe0Z1pR0R93Hi68bBHvdq6mxD9c7Ya7jEaVl70wsyLmfrrSQMoL/hF6DYoFgalziObtz/Rnrh+Bfou/O/o58v+pleP+l1umPMHTRh6AQaEjqEfJT/ShpK6KedP9G8/+bRbT/eRqd8cgodtegouubba+iZtc/QV3lfqQ3GLXhOArgzXWgoBR16CEVdcQXFz5lDyV98QWl/raUhHy6iuBkPU/gFF5D/qFHkYzCQpbaW6teupfJ3/keF995HW888i3LGjKWtF1xIhQ/PoIpFH1LD+vVkaWqSPx0AAACgby1YsIDGjBkjhnYdfvjh4gtxboytDePi6iYeysah0v77709//vmnbZazzuAKoNdff52OPPJIMYSM+xR9oXyu2lOBzL665JJL6L777hPXlyc44z7U3Di7dTPsfcH3CTcr5xnpeNZ+nqGO+193Fgd8XGnFDci5WoybrPeUvc4Wx+ER3xhuyOUKl7vx1Hi9GTBhtjjwRvUt9ZRTkUNZZVm22ep4OJ3J0raCIUAfQMMjhotZ6rTZ6oaFDyODru0MCgDgvqzcIDwvzz5LXVYmNWVmiZll2uA+UCkp6kx1IzPEqVFZdMHBcgcAAADoS3ualQs824knnigahWuz0nmS7potbq/hEk/R1xEPP/ywPNfzEC4BqJrNzSJg4rApsyxTnOaU51Cjue0MdKIPVHgqpUem2wInDqACDR2bfhQA3AP3YGrZvp0aMzPlwqFTFpnbmYHOMDhJzHbnP0INnDh40kdGyq0AAADQWxAu9Q88WxsPUTv55JPFKK+FCxeK6f+XL19OJ5xwgtzLc/RauOSOEC4BtI+HxOVX51NmeSZll2WrwZNy3tUMdDzUbkjYEBE4ZURmUHpUugidwoxhcg8A8AT8Vm4qKlKrmzhs4tBJOW8qLJR7ONPHxsrAyV7lpB84sMcaewIAAADCpf6ioaFBNBBft26d+JvysLMHH3yQzj33XLmHZ0G4hHAJoMP4ac7Nv7XhdNrQut0Nu+UezuKD4m3VTdppdGC03AoAnsJUUWGrcGri4GljppiBzhVdeDj5Z4wQoRMPp+NTv8GDycd3r+0ZAQAAoAMQLoE7QriEcAlgn5U2lIqgiQMnETwp53fW7pRbnUX5RzkFTlztNCh4ECodADyMubaOmnKy7X2cOHjasoWbKMo97HiaYhE0ybCJwyfu68SNxgEAAKBzEC6BO0K4hHAJoEdUN1eLvk1aDycOnLZWbyWL1SL3sAvxC1F7OEWqYVNGVIaY2U7n2/4MkwDgfnimuaZNuaJhuDakrik7h6wuZqDz8fMjY2qqLWwSlU5paeSLD8kAAAB7pB3E8/TwPF0+gDvgYX7btm1DuIRwCaDnNZgaaFPFJtHDSQyrU5bcilxqsbTIPez8df7qTHWyuolPuZG4n85P7gEAnsBqMlGz8gFYVDfZZqvLIktN2/5t5OtLxpRk23A6tXl4OunwHg0AAGDDM6xv2rSJYmJienSqfIDOKCsro5KSEho+fLhoUO4I4RIA9DgOlvIq85x6OPFSb2o7RbreR08p4Sm2sIkrndIi0yjIECT3AABPwB8ZWnbudAibuNIpi8ylpXIPZ4bERKchdXyqHzBAbgUAAPA+hYWFVFlZKQKmwMBAtJiAPsOf63jmOw6WwsPDaeDAgXKLXY+FS99//z0999xzlKV8oGQjlA+Mt912W69Pt4dwCcA98dC57dXbRcikzVbH4VNlU6Xcw45nqhscOtgWOGnD6yL8I+QeAOApWpQPJbam4aKBeBa1FBTIrc700dHqUDoZNnGVkyEhHh+uAQDAK/Dhd1FRkQiYANwBB0txcXEuP4v1SLj0yiuv0NSpU+n888+nww8/XKz7/fff6eOPPxaB08033yzW9QaESwCeg19iiuuLnXo4ceDE61yJC4pTm4Y7NA6PDYzFgSeAhzErH5obsx0ahytLc14evyjIPex8lfd0UeHkUOXkN2QI+bQqzQYAAOgveIhcS0vbFhMAvclgMLQZCueoR8KlQYMG0b333ku33HKLXKN6+eWX6YknnqCCdr6h7AkIlwA8X3ljuVMPJw6e8qtdT5EeYYxw6uHEwVNiSCL5+mCKdABPYqmvp8acHFvTcFHtlLuZlE/Xcg87n4AA8k9Ls4VNotpp2DDRUBwAAAAAel6PhEvBwcH0zz//0DDlg52j3NxcOvDAA6m2tlau6XkIlwD6p9rmWsqpyLFVN/HCfZ3MVrPcw477NaVFpBHPUMehEy/J4clk8MUU6QCexNrcTE2bN8uwSQ6ry8kha33b/m1kMIiASYRN3DScg6f0NPINDJQ7AAAAAEB36ZFwadKkSSJEuuuuu+Qa1dNPP01r166lRYsWyTU9D+ESgPdoMjfR5orNTj2ceOY6Xt+an68fpUak2qqbeOHL/npMkQ7gSaxmMzXn59vDJtk43KK877fh40N+PHWuY+Nw5bwuPFzuAAAAAABd0SPh0mOPPSaCpCOPPNKp59Lq1avpzjvvdPpFU6ZMked6BsIlAO9msphoa9VWtXG47OXES21L2wpKnY+OhoYNderhxEuIX4jcAwA8AX9cMe3aZRtOpwVPppISuYczQ3y8Q9NwPh1J+pho9G8DAAAA6KAeCZeGDh0qz+0Zf2jL44adPQjhEgC0xjPV7azZqQ6nK1N7OPF57u3kCvds4pBJG1bH4VNUQJTcCgCewlRaqgZOWuPwzExq2bFDbnWmi4pyCJvUKidDYiICJwAAAAAXeiRccicIlwCgI/jlraS+xNa/SQudCusK5R7OYgJi7I3DZaXTwKCBOPAE8DBm5XNCY1a2WuGUlUlNWVnUtCWPyGKRe9j5BgfLsEkNnIzKeWNyMvno9XIPAAAAAO+EcAkAYA8qGytF2CSqm2TzcJ6pzqr811qYMcweNilLelQ6DQ4ZTDpfTJEO4EksDQ3UtGmT05A6vmx1NVOd0UhGMVPdCNIahxuHp5Kvsh4AAADAW3RbuHTHHXfQzJkzKSgoSJzfk2effVae27tZs2bRp59+StnZ2RQQEEBHHHEEzZkzh9KUD3IdgXAJALpbfUu9mKnOsYcTNxI3WU1yD7sAfYCYqc7WOFw5TQlLIYMOM9UBeBIOlpq2bFHDJjmkjqucLK5mqtPrRUWTNpxOBE7pI0gXHCR3AAAAAOhfui1cOu6442jJkiUUHh4uzreHh4ysXLlSXtq7U045hS6++GI6+OCDyWQy0f33308bNmygTOVDHQdZe4NwCQB6Q7O5mTZXbrZVN/GyqXwTNZob5R52el89pYarM9VplU77Re9Hvj6+cg8A8ARWi0XMVMchk2OVk7myUu7hzG/wYIfG4WrwpI+MlFsBAAAAPFe3hUu9Zffu3RQTE0OrVq2iY445Rq5tH8IlAOgrZouZtlVvc+rhxOdrmmvkHnaT0ifRfYfeJy8BgKfij0qmoiJ72CSDJ17nij4ujgJGj6aYu6aRX1KSXAsAAADgWTwuXNq8eTOlpqbS+vXradSoUXKtXVNTk1g0fAMTExMRLgGAW+CX0YLaAlvQtKZoDa0rWUejokbRwtMXyr0AoL8xlZfLsEkdTscz1nHVkybyiiso9t575CUAAAAAz9Ij4VJdXR3Nnj2bvv/+eyopKSFLqxlX8vLy5LnO4Z9z5plnUmVlJf3yyy9yrbMZM2bQI488Ii/ZIVwCAHe0sXQjXfzVxWL2ue8v/F6uBQBvYK6tpbJ586js9Tco5OSTadALz8stAAAAAJ6lR8KliRMnimFrl112GQ0c2HZq7qlTp8pznXPjjTfSN998I4KlQYMGybXOULkEAJ5kd/1uOn7x8aLf0t+X/o2Z5QC8TPW331GB8rko4IADaMgiVC8CAACAZ+qRcImben/11Vd05JFHyjX77pZbbqGlS5fSTz/9REOHDpVr964zNxAAoLdxX6Yx740hs9VM31/wPcUExsgtAOAN6teto/yJk0gfP5BSOzHhCQAAAIA76Uz20uFpjCIiIiiym2Y/4TyLgyWeiY5nmetMsAQA4O64UikqIEqc5yomAPAuhthYcWraXSpmnwMAAADo7zocLs2cOZOmT59O9fX1ck3X3XzzzfTee+/RBx98QCEhIVRUVCSWhoYGuQcAgGfjfkusuL5YnAKA99BHRxNx+4CWFjJXVMi1AAAAAP3XHofFHXjggU69lXhWN959yJAhZDAY5FrV33//Lc/tXet+TZoFCxbQFVdcIS+1D8PiAMDdTV05lVbuWEkPHvogXZR+kVwLAN5i01FHk7m0lIZ++gn5Z2TItQAAAACeo9t6Lrmaoa09Dz/8sDzX8xAuAYC7e+z3x+jDnA/p2tHX0pSDpsi1AOAttp57HjVmZtKgV1+hkOOOk2sBAAAAPEe3hUvuCuESALi71/97nV5c9yKdPexsmnnkTLkWALzFjhtupNoff6S4Rx6hiIsulGsBAAAAPEdnspcO91zasWMH7dy5U14i+vPPP+m2226j+fPnyzUAAKCJDowWpyX1JeIUALyLXmvqXYy+awAAAND/dThcmjRpEv3www/iPDffPuGEE0TA9MADD9Cjjz4q1gMAgComUG3ojXAJwDvpY9XXgJYShEsAAADQ/3U4XNqwYQMdcsgh4vxHH31Eo0ePpl9//ZXef/99evvtt8V6AABQabPFIVwC8E4GW+USXgMAAACg/+twuNTS0kJGo1GcX7FiBZ155pnifHp6OhUWForzAACgiglSw6Xq5mpqNDWK8wDgPfQx6muAqQThEgAAAPR/HQ6XRo4cSa+99hr9/PPPtHz5cjrllFPE+l27dlFUVJQ4DwAAqhBDCPnr/MX53fW7xSkAeA99DHouAQAAgPfocLg0Z84cmjdvHh177LE0ceJE2n///cX6zz//3DZcDgAAVD4+Pva+Sw2oXADwNgbZc8lcWUmWpiZxHgAAAKC/6lC4ZLVaKTk5mbZv306lpaX01ltvyS1E1113nahoAgAAZ5gxDsB7+YaFkY9sJ4ChcQAAANDfdThcGjZsmJglLiIiQq5VDRkyhGJkXwEAALDDjHEA3ourF9F3CQAAALxFh8IlX19fSk1NpbKyMrkGAAD2BjPGAXg3vRwah75LAAAA0N91uOfS7Nmz6a677qINGzbINQAAsCda5RIaegN4J4Ns6t1SjIAZAAAA+rcOh0uXX345/fnnn6KRd0BAAEVGRjotAADgTAuXiutRtQDgjfSxmDEOAAAAvIOPlRsqdcA777wjz7k2efJkea7nVVdXU1hYGFVVVVFoaKhcCwDgXv4u/psmL5tMiSGJ9PW5X8u1AOAtyha8TSVz5lDoqRMo4dln5VoAAAAAz9CZ7KXD4ZI7QbgEAJ5gR80OOvXTU8moM9KaS9aIBr8A4D2qv/6aCu64kwLGjqEh770n1wIAAAB4hs5kLx0eFse2bNlCDz74IE2cOJFK5Mwn33zzDW3cuFGcBwAAO21YXJO5iaqbq8V5APAe9mFx6LkEAAAA/VuHw6VVq1bR6NGj6Y8//qBPP/2Uamtrxfp///2XHn74YXEeAADsuGIpzBgmzmPGOADv49hzyQMLxQEAAAA6rMPh0r333kuPPfYYLV++nPz8/ORaouOPP55+//13eQkAABxhxjgA76WPUZ//1uZmMldWivMAAAAA/VGHw6X169fTOeecIy/ZxSgfnEpLS+UlAABwFBOAGeMAvJWvnx/pwsPFeVMJAmYAAADovzocLoUrH44KCwvlJbt169ZRQkKCvAQAAI5slUsNOLAE8Ea2oXElCJgBAACg/+pwuHTxxRfTPffcQ0VFRWLGI4vFQqtXr6Zp06bR5ZdfLvcCAABH0YHR4hQ9lwC8kz5WDZi57xIAAABAf9XhcOmJJ56g9PR0SkxMFM28MzIy6JhjjqEjjjhCzCAHAABtxQaqVQsIlwC8k0FWLrUgXAIAAIB+rMPhEjfxfv3112nLli305Zdf0nvvvUfZ2dn07rvvkk6nk3sBAICj6ABULgF4M320rFxCzyUAAADoxzocLmmSkpJowoQJdMEFF1BqaqpcCwAArmC2OADvZuu5hMolAAAA6Mc6FS69+eabNGrUKPL39xcLn3/jjTfkVgAAaE0Ll0obS8lkMYnzAOA9tJ5LLWjoDQAAAP1Yh8Ol6dOn09SpU+mMM86gxYsXi4XP33777WIbAAC0FekfSTofHVmsFipvLJdrAcBbaD2XTMUYGgsAAAD9l49VIc/vUXR0NL344os0ceJEuUa1cOFCuvXWW6m0tFSu6XnV1dUUFhZGVVVVFBoaKtcCALin8YvHi55LC09bSKMGjJJrAcAbmMrKKPfIo8T59PX/kY/BIM4DAAAAuLvOZC8drlxqaWmhsWPHykt2Y8aMIZMJQz0AANoTE6AOi0FTbwDvo4uIIJKBkmk3eq8BAABA/9ThcOmyyy6jV199VV6ymz9/Pl1yySXyEgAAtKb1XUK4BOB9fHx9yRCtzhrZgqbeAAAA0E/tMVy64447bIuPj49o3s1NvK+55hqxjB49ml5//XXyVT44AQCAa9GB6oElwiUA72SfMQ6vAQAAANA/7TEVWrdunW1Zv369GALHvZe2bNkilgEDBtBBBx1EGzdulP8CAABaiw1UDywRLgF4J32MWr1oKsFrAAAAAPRPHW7o7U7Q0BsAPMlnmz+jh1Y/REfEH0HzTpwn1wKAtyh64gmq+N+7FHXN1RQzbZpcCwAAAODeeqShNwAAdA16LgF4N4McFteCYXEAAADQT3U4XGpsbKSnnnqKTj31VDFrHA+Hc1wAAMA1zBYH4N30MVrPJTT0BgAAgP6pw+HS1VdfTU8++SQNHjyYTj/9dDrrrLOcFgAAcC0mSA2XqpurqdHUKM4DgPfQx8qeSwiXAAAAoJ/qcM8lHmf39ddf05FHHinX9B30XAIAT8Ivs4e8fwg1mhvp63O+psTQRLkFALxB87ZttOWUCeQTGEhpf60VM/ACAAAAuLse6bmUkJBAISEh8hIAAHQUH0hqfZeK61G5AOBt9LLnkrW+niy1teI8AAAAQH/S4XDpmWeeoXvuuYfy8/PlGgAA6KjowGhxurthtzgFAO/hGxBAvvLbPgyNAwAAgP6ow+ESN/Hmpt7JycmigikyMtJpAQCA9mHGOADvZpB9l1oQLgEAAEA/1OFwaeLEiVRQUEBPPPEEzZ07l5577jmnpTN++uknOuOMMyg+Pl4MF/nss8/kFgCA/gkzxgF4N320bOpdgupFAAAA6H86HC79+uuvtHjxYjE07oorrqDJkyc7LZ1RV1dH+++/P7388styDQBA/4bKJQDvpvVdwrA4AAAA6I86HC6lp6dTQ0ODvLRvJkyYQI899hidc845cg0AQP+GcAnAu+nlsDhTCcIlAAAA6H86HC7Nnj2b7rzzTvrxxx+prKxMTEnnuPSkpqamXv19vempb7Pp2e9y6NuNRbSzol5MWQ4A/U+74ZKpmchilhcAoL8yyMqllmIEzAD9HX+etzQ2yksAAN7BR3nx61Ca4eur5lDcI8kR/3NeZzZ37eCI/+2SJUvo7LPPlmvamjFjBj3yyCPykl1VVRWFytlXPBHfd/s/8h1VN5rkGqLwQAONjA+lUfFhlKGcjlROhw4IIp2v8/0OAG6uqYaoupCotlgsO8o30anbFpKRfGgNDSafWuUAk7c1VBDp/YliRxIN3J8obj/lVFlilMsGZT0AeIwmcxNtrthMWeVZtLVqK1msFrlFeWr/tZ0OeWElVSQPoJ9nnC7XquKC4mhE5AhKi0yjMGOYXAsAnsBqsVDztnxqzMqkxsxMasrKosaNmWRWjlN8AgNJHz2A9AOilVO5DFAua+dj1FNdRIQ4JgIAcDdc2BMWFtah7KXD4dKqVavkOdfGjRsnz3VOR8IlrlziRcM3MDEx0ePDpRazhT74Yztt3FVFGwqqaVNxDZksbf8cgX46GjGQAyc1bBqZEEqpMSHkp+9w4RkA9KSaYqKi/4gK/1UXPl+xTW5UNSmfGccOSRLnf8nfSWHKh9E98tERRaergROHTXwaO4rI33Nf8wD6k7qWOsopzxFBUlaZsiineZV5ZLLavzBylFxopdlvm6k8mOiGW/VybVsJwQkiaBoRNYLSI9PF+ejAaLkVAPqStbmZmrZsocbMLBEkNXKQlJ1N1vp6uUfXcLjkn5GhLCPIf4SyKOcNSUnkI7/cBwDoKz0SLvWUjoRLrXXmBnqSJpOZcotraUNBFW3cVU0bdlVRVmE1Nba0PQj10/nS8LhgGjkwjEYlhFJGfBiNGBhCgX7tf2AFgH3EL5eV2+0BkgiTlNPaIrlDK1yBEBxDFBKnnMbSUfXrqMraQp+mXUepMaPFOrFw9VLhP+rP0n52fZn8Ia1EptjDJlHlpJwGDZAbAaAnVDRWiPAouzxbBEl8ml+dT1blv9a48ogDodSIVPLX2asP/SrqaNzN/yOr8rnn+/9dR1blfZyZrWbxs/hnFtQWiHWtDQgYYAuaOHTiUw6hUOkA0HMsDQ3UlJNDDQ7VSE25uWRtaZF72Pn4+5N/WhoZORzikGhEBvklDiJzZSWZSkvJtHu3mClSnGqX5Xlzebn6+aIV36AgMo5IFz9LC56MycnkYzDIPQAAel6PhUs///wzzZs3j/Ly8sTMcQkJCfTuu+/S0KFD6aijjpJ7dQ7CpT0zW6yUt7tWhE1ahROfOg6l0/DIueToYKcKJw6fwgLxJgTQadwHqWyzDHz+kWGSsjRWyh0cKU++AanOgU/caKLASLldde7n51JuRS69dsJrdGTCkXKtC/yyXK0cZDqGTXzK61wJTVB/p+PvD43nF1i5AwB0BH8kKq4vtoVIoipJWYrqXAfI3EstIzKD0qNk8KMsPMTNVehjNZspez/luamcDlv1o60Hk6Oqpirxu3nJLMsUpzy8zlWIFeIXYvud/Pv5egwOHUw6X53cAwA6yqwcWzRmZctqJHV4W3PeVuWzQNsveH1DQmzVRaLSSDn1GzKEfPRd+4KXezNxaOVYDcWhltVh1IbGx8+PjMOHO/1uvuzrj2H0ANAzeiRc+uSTT+iyyy6jSy65RARKmcqLX3JyMr300kv09ddfi6WjamtrafNm5aBNceCBB9Kzzz5Lxx13HEVGRlJSkjpsZE+8KVxyhf9kOysanMKmDbuqaXdN2zchlhgZYKtwEqFTfCjFhOJNCMCGm2rvznIOc4rWE7W4KHP3NShHlCNIrR46QA1zuF+SMVju0L4blt9Aq3etpkePeJTOSe3CbJl1pc5hE1/f8i1yYyuBUQ5hk7yuEUO5gZ7cAcC7cT+knTU7KbM8k7LLsm2VSeWN5XIPZ0khSWr1kKwc4vNRAcrzrBNyxx1LpuJiGrL4IwoYPVqu3bN65XVoU8Ump8qp3MpcMlnafskUoA+g4RHDxXXLiMoQp8PCh5Gfzk/uAQBcMSSGszmEOS07dsitznQDBqghjkP1kGHQoB6vGrSaTNSUlyeun1Y1xcPvLMoxVBs6nahosoVNMvjSBe/9cwkAwN70SLjEIdDtt99Ol19+OYWEhNC///4rwqV169bRhAkTqKionWEhLvCMcxwmtTZ58mR6++235aX2eXu41J6S6kZbhZM2rG5HeYPc6iw6xChCJm4cLk4TwmhQRECPv1kC9LnmOqLijTKckUtJlnKk2bbMnQyBap8jURUkK4K4D5LeKHfonOmrp9OSzUvolgNuoev3v16u3UeN1crt2aAGTVrwxLfH6mKSBb8QtaLKcVhddJrywRTVjdC/cRCTV5VnC2e0oIb7JrWm89FRcniyvSooMl0swX77fqC29cKLqPG//2jQS3Mp5IQT5NrOazG30JaqLfbqKuU0pyKHGkxt3/P1vnoRMGm3hcOxtIg0CuTXN4B+jA9xWgp2UWPmRhkmZVJTZpYIl1wxJCTYAiQtoDHEqDO9ugNuHM4hmLgtHDbJ2ySG1blgGJykhmIOVVb6qM4F4gAAPRIuBQYGimqlIUOGOIVLPEQuQ3nBauzF6TYRLnVcVX0LbSysokwOm2Qvpy27a8lF33AK9dfbKps4bOJTHmaHmerAY4leRg6hC58vy+VPaHIHB/7hDqGLDJOihhF14xCTuevm0vz/5tNFaRfRg4c9KNf2gBbl9bgk0+F2K6ccqJlcvE7rjESxGfawiU+5EssQIHcA8CyNyuOch5+K0IVDpLJsUfnTbGmWe9j5+fqJGdq0AImrfTiI8ecZHHvAzltvpZrlKyj2oQcp8pJL5NruYbaYKb8m31aFpQVoPNSuNR/lPx5Cp1VhaaeYqQ48FQ87bd62Ta1E4ookDl6UxaIcK7Th60t+Q4c6D21LTydduPI5wMPwYZyppETebnvgZNpVKPdwpo+NbTOkTz9wIL5cBoB29Ui4xEHS/Pnz6YQTTnAKl/73v//R7NmzRfDUWxAu7ZuGZjNlFVXTRhk28ZJTVEPN5rYH3P4GXzFTnb3KKUw0Ejfq0dMB3ExNkRqiiDBJ9kji5tuuBMepIYpjBU94kvKK2LMfrj7K+Yhm/j6Tjk08luYeP1eu7SVmkxqs2e4jGTw1VcsdHPBMdQOGt7qPRisvCDjwBPdS21yrViPJIIX7FHGPIm6S3VqwIVgESY5hytCwoaKyp7cUzXyMKt5/n6Kuu45i7rhdru05/BGvsK5QDZvK7MPqShpK5B7O4oPi1aBN9nDi89xXCgee4E4sPGNbbq46XEwLk7hHUYOLan2DgfxTUx0abSunaWnkG9i/K/dMFRXq/cOLrHLi8E15UZB72OmUYyr/kfbhdKIZ+ZDBmKkOAIQeCZdmzZpF7733Hr311lt04oknih5L+fn5xEPlHnroIbr11lvlnj0P4VL3azZZaHNJrRhKp1U5ZRZWU31z2w/oel8fSo0NkY3DlSWBZ6oLpWAjZqqDXsAvWTzNv2NVDoclda4PlihiiD1A0k5D2jbS7Q0/bP+BpvwwhUZGjaRFpy+Sa/sQNyqt5PvSIWzi0zrXQwZEzyYOm8R9eYB6nmfDA+gFZQ1ltiBJC0q217gOkCP9I52GgfH5QSGDyNenbw+WSue/TruffZbCzj6b4mfPkmt7X+v7kk931LjuOaPdl3w/iuquyAxxXyJwgt5gqasTwZFajaQGSU3ct9XVjG2BgSI4cqzKMaakiCbY0Oq+lFVOHNKRqW3/NnFfpvNMdTJwUu5P3JcA3qlHwiXe7YknnhAhU3292uTWaDTStGnTaObMmeJyb0G41DssFittLatTq5tsVU5VVFHv4g1d+Yw5NCpIBE32KqdQigjCmxDsA1u1jWP4oSwuhnkQHzQOSFMDDy1E4mqbAPcpc99YtpEu/vJiig6IppUXrpRr3Qy/JXAVmC24k+FdVTtVYCED7cGddt+HJaovCgBdwJ83eHY20WhbVtpw+FFS7zpAHhg0UA2SPKDapvKzz6jw3vso6IjDKemtt+Ra91DTXCPub8f7fE9VYKLCySG86+0qMOh/eNp+bViXFoDsqdrGcdp/PvUbnEQ+OlTWd4ZWBcb3ta1xOFeBuWh34mMwkDE11V7l5CVVYADerkfCJU2z8iLEM73xjG/caym4D2YiQLjUd/jhsquqUYRNPENdJs9UV1BNRdWue27Fh/k7B04JoRQX6o9vPKEtrU+QYzUSN6p22SfIT+0LZAs1lCUmg8jPvT/g7K7fTccvPl5UT/x16V+edSBWX24P97SgrzRX2eDiLaRN/ypliUrp1v5V0D/wjG351fm2SiRRSaMse+wTJIMkUU2jLOH8ePMQdb/9RtuvvIr8UlIo5asv5Vr31Zn+VUad0TZTnRY4pUakivUAjvizZKf6BMXE2Kpn1DBpBOnj4/FZsoe06V8l/0YW5firDa1/lfy7qKfpIvwDgP6hR8Mld4Bwyf2U1TaJyiYeVqdVOm0rczGNuyIyyE8dThcfRqMS1NPBkYHK+xM+JHiNphoSU/1zUKGFSbuzlSPNtqXZxDM0iRnOOKiQgYWHznDGDXfHvDdGVAKsOH8FxQb1zfC8btNUqzYKF3/Df9S/555m3uO/o2OVU/QI5agB1Y3eovUMZ1qVjMsZznz0NCximBpUcIgU1T9mOOOpxfNOPY18g4Mpbe0audaztCjPb65o0gJB7nPFM9V1ZOY97e/YHTPvgWfgwwwxw1mroMJcVib3cGZISnIOKjIww5k7EH/HggL5d1T/hnuceW/QIPk3VP+OXOnkTjPvAUDHdWu4dNVVV8lze8a9mHoLwiXPUN3YQlkicFKH020sqKbNu2uVA+y2Dznu15TBjcMT7BVOw6KDSa9DM0GPV6d8gCxyGF7Fp+V5ygYXLz0BkTJ4kOED9/XhPj/9qKnk+MXjxfCehactpFEDRsm1/YipmWh3lvPfm4NEFwEC+RqIYkbY/+ZiKKNyn/gFyR3AU9W31IsKFy1A4gBic+VmEUy05q/zp+GRw50CCJ6xzY8rFPsZc20dbRo7VpxP+2st+Qb1j8c6V6BxzyatuklUOpVlUUVThdzDWVJIkvg7c3gohjJGpYveTuDZrCaTCFA5fFCbbSsLV7zU1so9HCjv68aUZBkg2YdZ6UJC5A7gCThc0irPtPCwZedOudWZLnqAQ3WTsozMIENCAirQANxct4ZLvsqL/+DBg+nAAw8UqXV7lixZIs/1PIRLnquxxSxmpnOscMrimepMbWeqM+p9KT0uxDasjiuc+LK/AUNr3BK/PlQXOAQKfKos1a4/ZFBogj1Q0MIkXtfPP2RM+moSrS9dT88f9zyNTxov1/ZzFjNR2Wb1caEt/PhodNE7i5S//4DUto+NgAi5HdwND2HLKc+xDZ3iUGFb9TYROLQWYgixhQp8ymHSkNAhpPOiIZM5B40hS309JX/zNRmHDpVr+x/+zFhcX2yvcJI9tLifliuxgbG2cFGrWIsLisOBp5uyNDVR06ZNtkBBVLJwrx5lfWuiVw832uZgYaRalWQcPpx8AwLkHtCfmJXjs8asbHvolJVJzXlblQdN2/cEX+U4TjwuROikBk88zA69swDcR7eGSzfffDMtXLhQBExXXnklXXrppRQZ2bffLiFc6l9azBbasrtWVDZpoRPPWFfb1HaIlM7XR1Q0cWUTh00cOmUoS6i/5w2R8mj8AaFC+aCgDYXSwoJ612XuFJncKixQlqABcqN3mbpyKq3csZIeOPQBujj9YrnWC/FbT2W+8+OHz9e6PvCk8CTnxw+fD4nr92Gku+G+YVqAxEEBny+oLZBbnUX5R9kCJFGhEpVBCcH4lnrLhFOpeetWSnr7bQo67FC51ntUNFa0eQxx3y1Xwo3hTkEkL0mhSX0+65+3MdfW2qe1l2FS05Ytyoa2zd65ubN9Sns1TDImJ4uACbyXpaFBhI8N/NjhxxE3DueZ6lzN+ufvLxqFOzZsNw5PJV/MVAfQJ7o1XGJNTU306aefiqFvv/76K5122ml09dVX00knndQnHxIRLvV/PFPd9vJ6e4WTrHIqq2vbRJQNjgoUw+k4aBolK50GBKOJaLcwK2/8u3McAgA+3UDUXCN3cOCjI4pOVw7+ZQjAAQD32fHH81Tz+O+P06KcRXTt6GtpykFT5FqwqSmWjzOH4JJDKFeCYpwfa3waMQSBUzfgjwYcGmkhAJ9yEFDaUCr3cMahkRYiaUFAdGC03AqO8q+4kup//53in5xDYWeeKdd6t9rmWtG3SVQ4lakVTnmVeWSytv2SKVAfKB5njo817utk4GG2sM9M5eUO1Ug81CmTWvJdzxaqCw9XD/5lNRKf555JPv1oKDv0HCvPVLdli/pYk0MoG7OzySpnJXei15Nx2DDb44yrnIxp6aQLxjB6gJ7W7eGSo/z8fHr77bfpf//7H5lMJtq4cWOvzxiHcMk78UO1uLqJNhSogRMHT1zhVFDpopeLgmelE8PpbMPqQikhPMDrvzXfoxblvuQGzXxAr4VJxZlE5rZl7sQzAHF/HFs1iXLKM7YZUOa+J6//9zq9uO5FOivlLHrsqMfkWtijhgrlsSgbwGuPy9JNyotC2xJ7Moapj0XxuJSPzahU5fGKKdLbw43meRibdlCvBUk8NX1rXDHCw9gcK5J4CeP7HTpk1z33UNXSzyn6zjtowLXXyrXQWpPyvrO5YrM6nK5M7d3FARSvb42DJZ6Zjh+T4nEZlS5mrgvQ4/2oPfyZylRY6FSNxOdNRa6rR/VxcbKKRK1G4lNeh89U0J3ETHX52+XjUQ03uXE4D7VrQ3ns+Q0ebA+bZPCkj8AweoDu1KPh0o4dO2jBggUiYGpubqbs7GyES9CnyuuaRcjk2Mdpa1mdGHXTWnigQYRMjlVOQ6OCvHOmuoZK9YBdq0biA3dxwN62zJ2MyvNMO1jXwqQBw3HA3gVLNy+lB1c/SIcPPJzmnzRfroVOa66XM9XJIJQXnqnO7KK6Ue9PFDvKHjbxY1gEocp6L9Os3D+5lbn2psvKsql8EzWaG+UednpfPaWGKwfsDkESH7B7+oxtfa3kmWeo7PU3KOKyyyjugfvlWugIk8VE26q22R672tC62pa2DaM5CB0aOlQ8fkWVkwydQv2873Oj1WJRDtjz1QN1ESaplSLmSuVzgAvigJ2Hs/HBOjdeVg7c9X3cEgO8lwhCd+2SQai9yslUXCz3cKYfONAehMrgSR8biyAUoIu6PVxyHBb3yy+/0Omnny76L51yyimi4XdvQ7gEe8P9mrIK1aBJna2umnKLa5QPpm0f7oF+OnWmOlHdpM5UlxoTQn76flTWXVuihkc81EgLkyq2yY2tBA5QD8C1aiQ+DR/C3f3lDrAvft31K12//HoxG9aSs3pvIgSvwDPVlcohnPx4F491ZXExRTr56tUhnI6VdzyE09h/ZiriqeFtjbblQfiWyi0uhxpxhYdWhSSqP5QD8pSwFDLoMNSou5W/+x4VP/44hZx0Eg168QW5FrqKG8cX1KhDOPkxzpVO/HgvbyyXezjjIZzc/8vxsT4goP/0ALS2tKhDjbinjTwYb8rOFk3k2+ChRikpzkON0nmoUe9+aQzQFaayMjVo4sBJPtZbtrczhDMy0ulxzucxhBOgY7o1XLrpppto0aJFlJiYSFdddRVdcsklNGBA374JI1yCrmgymWlTUa2scFKrnDiAamxpO7TGT+dLw+OCaeTAMBqVwE3Dw2jEwBAK9HPzSh1+Olcqb6yO1Uh82l6T5LAkeVDtcIAdMlCUGkPP4IP7s5eeTSF+IfTrxF/lWugx3Hy+PE95HjgEq/y8aHB14Kk87rXm87YqJ2UJipLb3ZfWJJkPrrUgiZskW5X/WuMhbHxgLaaA5wNs5eCap4b3phnb+lL1d99RwZSpFLD//jTkw0VyLXQn/mi7u2G3GjZpwz2V58Wuul1yD2fRAdG2cFULnjyh+bzWJNmxooNncOOAqTUfo1GdsY0PrEVVh2ySrKwH6C/MNTXi+aBW6MlwNU/5DOCq+XxQEBlHpNueD3xqTEkmHz2q8gEcdWu4xJVJSUlJdOCBB+7xTZYrm3oLwiXoLiazhbaW1qmBk8NsdTWNbb/Z55FzyTxTnRxWp1U6hQX20Tf7Ynr3LerBsm1okHLQ3OiqzF258lHDWh00K6eBKHPvbdXN1XTkwiPF+T8v+RM9QfoCv+1V7bRXNonnkHJa7XrWMwodpD5vHEPY0IQ+CWH5LZund9cOlrXhQe1N7x4TGGOrztACJUzv3rca/v2Xtl10sRi6kfrDSrkWekNVU1Wb5w4Ps3MVwvIXAOK5I4fT8XNncOjgPgthzcpnX204kFqpsYfp3UNC1CoNUamhhklienccNIMXsjQ2itDVscqJQ1luKN6aj5+fGsI6PHeMw4eTr7/3DaMH0HRruHTFFVd06EMo92HqLQiXoCfxU2JHeYOtuokDpw0F1VRa66KptWJQRIAtbNJmqosJ7eY3IR7uszvL+UCY+yW1uChz5+E+MSPUigvtQJj7zRhR5u4O+PF16AeHUoOpgb465ysxrTa4ibpS9fmlPcf4lKueXAmMcg6bBh5AFDGUv5GRO+w7Hu6zo2aHehAsq5F4aW+4T2JIoi1IEgfEkekUFeD+VVfepqWwkDYfd7wYkpT+378YltHH6pX30U0Vm5yeZ9yXjPs7tcZfBnDfMX5uac81HuLsp+veKdJNu3c7VSPxacvOnXKrM11UlDgAVqsvlIPhkRlkGDQIATLAHojho3lbRUgrqptkcGupczGMXqcjY3KyPWySwa0upP8MowfYk24Nl9wRwiXoCyXVjWrYJGer21hYJUIoV6JDjLKySatyCqPEyA7OVNesvLE5ztjGCzcqtrQtcyeueuEZ28QBrrLwwS4HS3qUubuz0z49jbbXbKcFJy+gsXFj5VpwS43VapDrWOW0O1v5ZOqi8b2f8kFTez5qwVN0mvLBdO/VjS3K83tr1VbbwS0P5eGZsbhvUms6Hx0NDRtqC5C0qiSutAD3xwc12fspjw3l41fqLz+Tvo9bDUBbLeYW2ly52Slw4ucjfynQGje+54DJMXBKi0jrUON7/gjeUlAgQyRZUaEc5HK45IohIUEc4GqzYvFQHn1MNIIkgG7Aje9bduyQz0ct3M0kc0WF3MMZ92yyhboi4B1B+ih8oQP9D8IlgF5SVd9iq3DiU24enre7llz0DadQf706Qx2HTQnqaXKwiXTFDtVIfFqaq+zt4gf48xTrDgetvPBQN/RJ8ThXLruS1havpTlHz6FTk0+Va8FjtDQSlXAALJ+zIgDOJDK1nXGNdEai2Az5vFUrnBqjUii3dqdtWA7P3MaVE82WtiX6fr5+aqVElDxwVRaect2fZ8ADj7Xp6KPJvLuUhnzyMQWMHCnXgjszW8yUX5NvC5v4lJ+/PNS5NR/lPx5Cp4VNHDylhw2nwKJK5wNXrpRQPtO24eMjhrE5ViP5c6Pt8HC5AwD0Bj5M5lnpHJ+zXO1k2lUo93DGs9I5Dqnj8/r4eATA4NEQLgH0ofpmnqmuhjIdhtVtKqqhcHM5jfTdRqN8tiqn+TTKdysN8imV/6qV4Dh5IOoQJoUniQ+c4Pnu/ulu+mbrNzRt7DSaPHKyXAsezWwiKt1kD4k5eFLO1zTXULbRj7L9/CiLF6OBthoMZHbxXA4yBNmqH7SKJK5QMvhixrb+Zut551Pjxo006JVXKOT44+Ra8DT8EbqwrtAWNGlhcXlNMSUqb+9Di6w0tFhZlNOk3UT+LgqQyaAnY2qqPUjixsJpw0WzYQBwT6aKCtk03B4WN+fn84uC3MNOpxyzGm1hk7Iop35DBmNINHgMhEsAfYmfUjzNv0M1klU50PSpK5E7OMu3xNBG6xDaYBlCmcppNg2liNhEOaQulEYm8Ex1oRRsRCPO/uKZtc/Q2xvfpssyLqO7D75brgVPV9ZQplY08EGmPNjknkmuRJrNlN7UTCOamym9uYUylPODQhLIl3s3OVYnBsfIfwH9yY6bbqbalSspbsYMirj4IrkWPBH3aGnkGdscKhuacnOVo8+2PZsaDcp7vvKU3hrrQ1vjlEU5rRsUScNjMmwVThwuDwoZRL4+OPAE8CTm2jpqyslWXwtk8NS0ebPL1wKfwEBRjeg4pM6YkiIaigO4G4RLAL2FZ2zjYWwOQZKoWGiqkjs44A+KA4bbqpHMyrLdL4X+KyXKlBVOXOlUWe9iCmEfoqEDgkTvJhE4iT5OoRQRhDchT/S/jf+jp9Y+RacMOYWeGveUXAuegt82eXa2zHL7FOccJJXUuw6QBwYNdKhISqMRxgEUW1FAPsXr7a8ZVdvl3q2EDHQIm+RpWKL6ogAeq3DGDKpc9CENuOlGip4yRa4Fd2eurLQdNNqqFbZtc1mt4Kt8TrUdOCqn5uGDaUtwPWVV5thC6LyqPNG4v7VgQzCl8WuF8pqREZUhXj+4ipH7OwGA57A0N1PTplwxlE593cikppxNZG1sO4zex2BQqxhHqk3DA5TXDp65zjcAswpD30K4BNATTE1qXxXtYJBPufG2iwafxDPHxGTYDwZ55rbYkUR+e27wyU/HXVWN9qbh8rSo2kUvF0VCeIAImUTolKCexoYaMbbbzS3btozuWnUXHRRzEL0z4R25FtwRH/jlV+c7hUi88JTmrTn2WXHskRTu34E+KfXlzgE1n5ZtVja4eIvmn2cLm2SlU1QK+q95kNJXX6XdL7xIYeedS/GPPy7Xgrvg92JTCc/YJg8GOVDamEktu3bJPZzpo6PVEMnhoLAjfVa4QXhuRa54feEm/nzKl131XzPqjKL/mvb6khGZQcMihon1AOA5rCaTCKXVsMle5WSpqZF7OPD1Jb/kobbhdGpgPYJ0OP6FXoRwCWBfNSkv8EUbnA/2dvOMbW1LW8kvWJ3qXxzsyQO+6PQOzRDVUaW1TWr/poIqUeXEzcO3ldXLrc6igvzEUDr7THWhlBQZqLw/IXByF38X/02Tl02mQcGD6JvzvpFroa/xjG15lXm2gzwOkXLKc6je1Pa5pvfRU0p4itNQFq404L5J3aaplqhYeR3SwqYiZSnJVl6HXDRu4d/bZqY65XVIj+pGd1T5yadU+MADFHTUUZT0xutyLfQF/hiszhAlK5L4QE9ZzKWueyKKGaL4AI8XbrStnHbnjH/a6xC//mihNp+29zqUHJ4sXoO0CideuvV1CAB6nHgd4pkjN/JrkBpqi9eh3e28Dg0apIZN3MtJBE4ZIuQG6AkIlwA6o65MPWizHcApp2VblA0unhoBkfYASRzEKUtksvhmobdVN7bIoEkNmzYWVNPm3bVkdjFVXYhRTyMcwqZRCWGUEh1Eeh16OvSFnTU7acKnE8RMYGsvXYtKsz7AFQM8Qxs339WqkbhigA/sWvPX+dPwSLViQKsaSA1PJT+uUOxtooIyyyH45tesDXuooBxhD5t4ERWUOPDsa7W/rKYd11wjhkAkf/G5XAs9TVQMbN2qHrhpYVJ2drsVA8aUZHHQZp/6fwTpQkLkDr2HKyi5f5utelIGThVNrqdIt1VQyuCbX7Mi/ZXPLwDgUVpKStTKSV5E8JRFLTt3yq3OdNEDbK9TavCUQYaEBHzGhH2GcAnAFX6oVxeoIZJjRVK16xdpCk1wOCiTp7zOjV+kG1vMlF1UI8KmDQXVYsa6LOVys6ltTwej3pfS40KcqpzSlMv+Bgyt6WlN5iYa+95Ycf6Xi3+hMGOYOA89g6cKdwyR+PzW6q0ue52EGELsU4fLaoAhoUNI585Dzrj3Gw+hs4VN8vWtsZ3eb1Gp9tc08RqnLAERcgfoDY2bNtHWM88SswgN/+N3uRa6k6WpSe11IioA1DCpKSeHrMr61riJrnH4cKdqJL7szr1O+ON7cX2xLWjSesBxPzhXYgNjxWubFpLzeV6HA08Az2JWjn8bs7hxuBo28SmH5mRp+5nGVzlOFq9rDq9tfkOHko8On/Wh4xAuAfALbIXyQlv4jxogaQdc9WVyh1a4+sh2oMVhkrIEdV+Ze19qMVtoy+5aETaJCqddHDpVU21T2yF+Ol8fSo0JpgyHKic+H+KPqdC729GLjqbKpkr65MxPRB8N6B6lDaX2YW3yW/6C2gK51dmAgAG2b/a1g66E4H7yLR+/tVdudw6b+LWw1vWBJ4UnyddA+frHgVNInNwI3Y0PDjYdepg4n/bPOvL19xfnoWvELE3ZfJAlq5GUA66mLVtcztLkGxhor0QSywgyJieLZrr9QUVjhVN1E5/nvnGuhBvDbZVN3MOJXw+TQpMwUx2Ah7HU16uzVvJrn6xy4lkrrS0uJgkKCCB/DtNljzh+HeQqWl/MVAftQLgE3sWsvHDuznE+gCpaT9TsoszdR6f2IXH81j5uNJG/dz2OLBYrbS+vt81Qp/VyKqtr20SUDYkKtFU4aTPWRQWjiei+OPfzc8UwrNdOeI2OTDhSroWO4rcuDo3EN/YOPZI4XHKFQyMtRNICpehAL+xPUFPs8Fopg6eKbXJjK8Gx9som7fUyYojyOopKh33Fj9+cAw8SMwalfPct+SUlyS2wN6bycjVE0pptK+eb812HJ7qICFuAJL6552Eiyn3t0wdD2ftSXUudeI10DN25r5PJ2jZ8C9QHqq+RDq+V3NfJ4IsvmQA8iZVnqtuyxSl052HA1noXPVt5prphw5yrnHimuiAMoweES9CftTSoM7Q5fhtfnElkblvmTjyDCje4dTw44hncDJjS0xV+KSiubrLNVMfBEwdOBZUuerko4kL9xQx1GTJs4vApPswfJfYddMOKG2h1wWp69IhH6ZzUc+RacMVsMdO26m1tvo2vcREg8zfuQ0OHOs3Wxo22MfRwDxoq1UDe8XW1dJPyotC2xJ78lftRhPLyNZVfW3mYnQ5TpHfW5pNPppb87TT43f9R4MEHy7Wg4fckU1GRekAke43wARKvc0U/cKAtQBJhknKqj8Wwr/bw8OzNFZvFa6kWOnEfukZz29lpuT/gsIhhttdUDp5SI1IpQI/PUwCexGo2U7PyvtN6Jkyupm1Dee30GzLEHjYpp1zppI/AMHpvg3AJ+gfuFyIOeOTBDh/0cIWS1Sx3cGBUHgdcgaR9u86nA4bjgKcbVNQ128Im0Ty8oIq2ltWJUTetRQQaRGWTqHCSlU5Do4IwU50L01dPpyWbl9AtB9xC1+9/vVwLzeZm2lypHPDIb9d54QovbsDdGn+TPix8GDnOksRBEg54ukFzvRrkO052UMJBvovqRr6/uVG4FjZpQb4e1Y17kn/pZVS/di3FP/M0hZ12mlzrnawWi6g+Egc6/A27/KbdXFkp93AmDnh4OJstTMrAAU83MFlMtK1KBvkydOIedTUtroP85DB1pjotcOLX31A/fC4H8CQiyC8sdHrt5TDfVFws93Cmj+cgX6sIVU5HKq+/MTEI8vsxhEvgeWp3ywCJD2TkwQz3THIlcIDzQYwYqjFUzOwCvYP7NWUVqkGTGjxVU25xjfLBtO3LSZCfjkYMVGeo03o5pcYGk8HLZ6p7ad1LNO+/eXTh8AvpocMfkmu9S31LPeVU5Dj1SNpSucXlUA0OjLQASTuQSQlLUR5HGKrRa8QQ5Gx72MRL8Qai5lq5gwNfPVH0CPV1Wgv8uZLU2PszbbmrgjunUfVXX1HM3XdT1FVXyrX9H/cAsQ3VkGESh0rcM6QNvZ6MKSlqgCS/PTempZMuGEM1egsfJuys3elUNcrnyxpd97AcFDxIvD7z67R4vVbOc387APAsprIyp7CJT1u2b5dbnekiI51ep/nUkJjodUOQ+yuES+C++OFWtcN+cKINwagplDu0EpZoPzDRwqSQgaJUE9xLk8lMm4pqZYWTOltddlE1Nba0HVrjp/MVM9OpPZzUKqcRcaEU4Oc9s1d8lPMRzfx9Jh2beCzNPX6uXNt/VTZW2r4J16qSuMmsVfmvNR7C5jj8gg9QkkKS3HvGNm/FkyeU5ymv4//YX8/59b2hXO7gSHndjkpxfk3nBuJBUXK7dyl+8ikqf+stipw8mWLvu1eu7V8sDQ3UtGmTenAiD1JEk9nmthVwPkYjGdPT1IMTcZCSQcbhqeSrrAf3s7t+ty1o0l7b25s8ITog2vZarr2uxwfFo9IBwMOYa2qcvhQQp1uUzwCuZqoLDib/9HQyymHK4jU9JZl89BhV4mkQLoF7ENNjb5EHHHLWNj7fUCF3cMQHHcPkwYZ24KEsgZFyO3gik9lCeaV1trBJm62uptHFDD7KQyAlOliETVqVEw+xCwvon5UpP+74kW5deSvxkK4PT/9QrvV8/JZSUl+iHnTIAw8+6Ciscx0gxwTE2A86lFM+8BgYNBAHHZ5MfImw0yFskoFTzS65Qyuhg9TXfn7N117/Q+P7/ZcI5e+8Q8WzZlPIhFNo0HPPybWey6x8NhPTYzv08tjbQYf4hpsPOpRFTI+Ngw6PVtVUZfsCIbNcrUjlYXauvkTg4XOO1U18fnDoYHyJAOBhbF8iiLBJBk7K5Xa/ROCZ6hyqnPgyvkRwbwiXoPeZlBcQMVzCoRqpaANRS53cwYFtuAQHSPJAIpaHSwTLHaA/45ecHeUNtgonMayuoJpKa100ZVckRgbQyIFhonm46OeknMaEeP603RvLNtLFX14svtFdeeFKudazWKwW2lmz0ylE4vPlja6qVpS/ZUiiOJBw7JGE4RJehIc/O/Zw4vcKrnpyJTDKOWzipZ8Nf65etowKbrudAsaMoSHvvyfXegZTaak4gHAcMtGyY4fc6kwXFWU/kBBB0ggyDBqE4RJeQhv+7PgewX31uL9Tazz8eXjEcFt1E59yXz0MfwbwLGL4c16e/T1CfuHgcvizTqcOfxbvEer7BPfT0wXjuNBdIFyCntVcZ5+xTVtKspQjzRa5gwNu9GqbsU2GSWj0Ci6UVDeqgVOBvXn4zgrXM9VFhxjVGep4pjoZOg2KCPCoaheeMv+4j44TTVH/uvQv0nPo6sb4QCCvKs/2rTQfIOSU51BtS9t+O1qjV8dvpfk0xA/9dqAVMXHDBnvYxMETf1HhauIGfvyIiRvk+wm/r0SnKR9MPfPAs/7vvyl/0iUiaBm2Yrlc6174I2JLwS57NZI8UDDt3i33cGaIj3cYAsGnI0kfE41KRHCiTdzA7ydazz2eqc7VxA383sgBk/Z+wl9OcAAVaAiUewCAJ+CJG7hnkwibHKqczBWuRrQo7yeDk8RQOvv7yQjSR3nnMPq+hnAJug8PYdOGs4kgSTkty+VXCLmDA57qW/vQr33wH5CqHGmixBm6prK+mTJFw3A1bOJly+5aMeqmtVB/vVrZJIfV8WlydDDp3HSmOp5ef8x7Y8isHESvOH8FxQbFyi19j6eo5hnaHBtt51bmivWt8RTVPCW19i0zf/jHFNWwT1qUA0yemU57z+FT/kLDxeOPdEai2Az7e87AA9TLBvd//DXvLKAtJ5xAPn5+lPbvP30ewIgpqrdts33gFx/++Ztm5bNWG8p15WFsjtVIxvR0zNgGXcbvidyHz7ESlofW1TS3nanOR/lvSNgQNWyKzKD0KLWXE/frAwDPwTEEz0on3nMc3nt49jpX9LGxTmETn9cPRCuFnoZwCbqmpsjhw7xszlrpelYAClYOhG0f5jlMUk7DB4sPnAA9qb5ZzlTHYZOsctpUXEMt5rYvZQEGHaUPDBEz1GmhE89UZ9S7R+B5wuITqLi+mD449QMaHT1aru1dtc214kO8CJH4Q72y5FXmidCrtSBDEKVFpDkFScnhyWTwxZAF6GE8U13pJvX9yTb0ej1RU7XcwYGP8vweMNz+3iTeq5Tnl797HXhyP4rs/ZTrpkj97ddeDWb4dzdt3uz8gT4nh6wNLqpFDQYyDhvmECQpS9pw8g3CjG3Qs/gQZVfdLlu1rPZlx+4G15Vz3CRcq5Tl9yg+z0PPceAJ4FlMFRXifUlrGs7vU/zlhyu6sDC1d5P2HjUig/yGDMbQ626EcAn2jP/kFcoT1LEaiU/rSuQOrXBoZPuALj+sh8TJjQB9r9lkodySGhE2iebhu6pFAFXf3DYg0fv6UGosB048nE4NnEYMDKUgY+8PS5v01SRaX7qenj/ueRqfNF6u7TllDWX2EEl+M7y9xnWAHGGMsH9Il2ES90ziIW8AboEbRVdsbfteVl8qd2iFeza1fi8LjpEb+8amI44kc3k5DV36Gfmnpcm13Yt7XDRm56gf0MXwtiwRLFFL26HsPgEB4no49r0wpqaSr5+f3AOg7/Gwcu09THs/21m7U251FukfaXsP05ZBIYMQOAF4GHNtHTXlZFPjRn4vUytrxXuZycUkQYGBoprWqbo2JUVUCkPnIVwCO56xrTRX/cBt+7ZXOeU+F63xQSN/2+tYjcTf9gagzB08j9lipa1ypjp1SJ06Y11Vg4sDKuUz5tABQWJYndbLiYOniKCefRO67Yfb6Pvt39P9h95PE9MnyrX7jl/Wi+qKbLP1aN/68ixursQFxdmHF8gwKTYwFh++wfPwR5qaQuewid/zqlw3m6aQgTJs4vc9+d4Xlqi+KPSCvLPPoabsbEqcP4+CjzlGru06c2Wl+qHbYXhB89at6v3Siq/y+cmpGkn58O03ZAj56DCUHTxPdXO16AOoDefmhfsE8sQTrQUbgsV7nXjfkxNMDA0b6va9DwHAmaWpiZo25apfnMgqp6acTWRtbJR72PlwFW5qqq3KKYC/QElLI98AtHHYG4RL3srUJPtUOHyg5kapLhokkk45aI4Z4RAkcZ+KkUR+aJAI/Re/3BVUNsghdXKmul1VVFzteqa6hPAAyuDqJodhdbGhxm4LXR7//XFalLOIrh19LU05aIpc2zn8wZn7VDiGSHy+sqlS7uFsSKjap8JWlRQ5giL8ESBDP1dfbn9f1IKnss3KBhcfgfgLFVvYpLw38vmolB7pH7j9+uupbtVPFDfzUYq44AK5du/4tcxUslv5IL3R/oE6M4tadu2SezjTR0eLAMnebDuDDAnxCJChX+MG4dwoPLtMVjgpC/cTbHExAY1RZ7TNVKf1cOL+gbweADyH1WQSX6qI90aHKidLTdv+bTwDregfKN4XtffHdDHUDuw8Jlx6+eWX6amnnqKioiLaf//9ae7cuXTIIYfIre1DuKRoUp4gHBw5flDezTO2tS0NJEOQ8uGYZ9iR1Uh8OiBN+bSJ0kAAtrumyanCiU/zy1xMl6qICvKjkbJhuBY6JUUGKu9PnT9Ie2P9G/TC3y/QmSln0uNHPS7Xtq/F3EJbqrY4hUi8uJxhx0dPKeEptiCJPyinRaaJvkkAoGiqJSqWM9Xxe2iRcipmPm3vfbTVzKfRI/b5fbTwoelUuXgxDbjlFoq+5Wa51hl/TONp/h2rkfjUXFYm93BmSEx0GgrA5zlcAgDlfdTSIvoKau+h2vC6elPb93ydj070FeT3T7Eo76XcdzDYD1OkA3gS8T66c6fD+6iyKOfNpa6H0fMsruJ9dKQ9dPLm91GPCJc+/PBDuvzyy+m1116jQw89lJ5//nlarHzAysnJoZiYPfdA8LpwqU75AMkfeh0rksq2KBtcfeMaqX7odaxIikwWySwAdFx1Y4uYqc6xyon7OllcPO1CjHoaES97OHHglBBKw6KDSa/b8/Nu6eal9ODqB+nwgYfT/JPmy7Uq7RtX7YMvl/rz1M2uvnH11/mr37g6VCMNixiGb1wBOktUAGfZ32vFaTsVwNzIniuAxXutXEQFcMcD3N0vvUylL71E4RdeSAMffUR849qUl+fUxFR841pbK/+FA+V93ZiS7NTEVHzjiopugE7hCuDt1dvV91oeTi4rndqrAB4cOtj2XssLVzpxbycA8CwtJSXivdbxPbeloEBudaaLHmALmsT77UiuAE7wigpgjwiXOFA6+OCD6SXlQxWzWCyUmJhIt956K917771iXXv6bbjEf4rqXc4fajlQqnbdpJBC4uUHWhkkcaAUNkj5q6LMHaAnNLaY7TPViaWKsotqREPx1ox6X9HHaUhUEA2NVhbldAhfHhBI0cHq0Lrfdv1G1y2/TnxQnX7YdFvZPn+w3Vq91WWviBBDiK1kX/twy1Myo1cEQA/Rehfa3pfle3R7vQujUtX3Za4Y5vfk4Dh1EgxuHm4MkTuqKj76iIqmP0z6uDjSx8RQE8/Y1tR2mK7oFTF8uFqJJCqSMsRl9IoA6Bl8eMSzuWo9nMT7c1mWWOcK9ynUqoTFopxH70IAzyN6F2Znq1/uiCqnLGrOy1OP01ux9S50qHLiYXb9rXeh24dLzc3NFBgYSB9//DGdffbZci3R5MmTqVL5gy5dulSuca3fhEs8tXLWF85BUnuz3HD1kWM5Ps90E4wyd4C+1mK20OaSWlvYxDPWZRZWU22Ti6E1UrBRT4OjAik6qpL+Mt0v17YVqAunGGMKxfgli9NoYzKF6fFhFaDPKR+dght3UVRNNkVVZ6mnyhLY3M57uNSiC6B6vwHUYIymeqNyusuHfBevl1tVVj89mWMjyDwwksxxymlcJFmiw4j2UgkJAD2vxtpI262VylJhW0rIRWWhIoAMYvEnPRl99MqpgYzKeb7sr1w2ysu8+BLe1wHcla7ZTGElDRReVKcs9RReXC8u+7oYzmAy+FJVTABVxgVRZWwgHXr5/ZR6wNFyq2dy+3Bp165dlJCQQL/++isdfvjhci3R3XffTatWraI//vhDrlE1cSd4h2/y+AZylZPHh0s8jfLsRKJmhzclHx1RdJq9EkmcjiLyR2MxAE9hUd5stpfXi9nqeNlWZj8tqGiwD63zaaGglKfJ11BFlmblILIxnizKYm5KEKdWUz+qzATwAtFUQSN9t9FIn3xK991OMT6VFKOs49Mgn7YVSVycuHtDiPKiobzNR7aQMbyF/ELMKEAG8CC1yhM2x8+Pso0GyuRTZdniZyAznsgA/ZbObKVBpUTJRVYaUmyloXxaoryXt+peUXz/FXTs5ffIS56p34VLM2bMoEceeUResvP4cIl9MVU9FSGSssRmEBlQ5g7QXzWZzLRDBE/1tK20jraUVlFVYx0ZfNBoG6A/87PUU5ipnEJNZcqinJr5VD2vs7Zf6QgAnqeFLLRbZ6JGH4tYmuRpo4/Vfl7ZRz1vJf4PADybj8VKEZUWiikx25cnn6WDDjxR7uGZ+t2wuH5buQQAAAAAAAAA4IY6Ey71yQB+Pz8/GjNmDH3//fdyjdrQmy87VjJpjEajuCGOCwAAAAAAAAAA9L0+6w55xx130Ouvv07vvPMOZWVl0Y033kh1dXV05ZVXyj0AAAAAAAAAAMDd9Vm4dNFFF9HTTz9N06dPpwMOOID++ecfWrZsGcXGxso9AAAAAAAAAADA3fVJz6V91ZlxfwAAAAAAAAAA0Dlu33MJAAAAAAAAAAD6B4RLAAAAAAAAAADQZR45LI5LssLDw2nHjh0YFgcAAAAAAAAA0M14WFxiYiJVVlaK4XF74pHh0s6dO8UNBAAAAAAAAACAnsOFPYMGDZKXXPPIcMlisdCuXbsoJCSEfHx85FrPpCWBqMIC2Ds8XwA6Bs8VgI7BcwWg4/B8AeiY/vRc4biopqaG4uPjydd3z12VPDJc6k/4gYeZ7wA6Bs8XgI7BcwWgY/BcAeg4PF8AOsZbnyto6A0AAAAAAAAAAF2GcAkAAAAAAAAAALpMN0Mhz0Mf0el0dOyxx5Jer5drAKA9eL4AdAyeKwAdg+cKQMfh+QLQMd74XEHPJQAAAAAAAAAA6DIMiwMAAAAAAAAAgC5DuAQAAAAAAAAAAF2GcAkAAAAAAAAAALoM4RIAAAAAAAAAAHQZwqU+9vLLL9OQIUPI39+fDj30UPrzzz/lFgDvNGvWLDr44IMpJCSEYmJi6Oyzz6acnBy5VdXY2Eg333wzRUVFUXBwMJ133nlUXFwstwJ4p9mzZ5OPjw/ddtttcg2eKwCOCgoK6NJLLxXPh4CAABo9ejStXbtWbiXiOW6mT59OAwcOFNtPOOEEys3NlVsBvIPZbKaHHnqIhg4dKp4HKSkpNHPmTPH80OC5At7qp59+ojPOOIPi4+PFZ67PPvtMblF15LlRXl5Ol1xyCYWGhlJ4eDhdffXVVFtbK7d6NoRLfejDDz+kO+64gx5++GH6+++/af/996eTTz6ZSkpK5B4A3mfVqlXiYPj333+n5cuXU0tLC5100klUV1cn9yC6/fbb6YsvvqDFixeL/Xft2kXnnnuu3ArgfdasWUPz5s2j/fbbT65R4bkCoKqoqKAjjzySDAYDffPNN5SZmUnPPPMMRUREyD2InnzySXrxxRfptddeoz/++IOCgoLE5zIOaQG8xZw5c+jVV1+ll156ibKyssRlfm7MnTtX7oHnCngvPh7hY3YuEHGlI88NDpY2btwojnO+/PJLEVhdd911cquHs0KfOeSQQ6zKQbS8ZLWazWZrfHy8ddasWXINAJSUlPBXZVblwFhcrqystCoHB1blYFlcZsqHH7HPb7/9JtcAeI+amhpramqqVfmQYh03bpx16tSpYj2eKwB299xzj/Woo46Sl9qyWCzWuLg461NPPSXXqM8ho9FoXbhwoVwD0P+ddtpp1quuukpeUp177rlW5YBYnMdzBUDFn6eWLFkiL3XsuZGZmSn+3Zo1a8Rl9s0331h9fHysBQUFco3nQuVSH2lubqa//vpLlMppfH19xWXlQ79cAwBVVVXiNDIyUpzy84armRyfO+np6ZSUlITnDnglrvRTDgacnhMMzxUAu88//5zGjh1LF1xwgRhyfeCBB9Lrr78utxJt3bqVioqKnJ4vYWFhomUBni/gTY444gj6/vvvadOmTeLyv//+S7/88gtNmDBBXMZzBcC1jjw3+JSHwvH7kYb35xyAK508HcKlPlJaWirGNMfGxso1Kr7MD0oAILJYLKJ/DA9lGDVqlFjHzw8/Pz/xwuwIzx3wRosWLRLDqrlXWWt4rgDY5eXliaE+qamp9O2339KNN95IU6ZMoXfeeUds154T+FwG3u7ee++liy++WHwZwcNIOYjlz2I8lIfhuQLgWkeeG3zKX3A40uv14kv0/vD8QbgEAG6LKzI2bNggDqABwNmOHTto6tSp9P7774tJIQCgffxlxUEHHURPPPGEOFjm/hbXXnut6IsBAHYfffSReF/54IMPxJcXHMA+/fTTtiAWAKA9CJf6yIABA0in07WZtYcvx8XFyUsA3uuWW24RTe5++OEHGjRokFxL4vnBw0orKyvlGhWeO+BteNgbTwDBB8z8rRcv3LSbG0nyef6mDM8VABXP3JORkSEvqUaMGEHbt28X57XnBD6Xgbe76667bNVLPKPiZZddJiaH0Cpk8VwBcK0jzw0+bT15l8lkEjPI9YfnD8KlPsJDFcaMGSPGNGv4WzW+fPjhh8s1AN7HarWKYGnJkiW0cuVKMRWuI37ecJm243MnJydHHCDguQPeZPz48bR+/Xr6559/bAuP4eehC9p5PFcAVDy8mh//jrinzODBg8V5fq/hD/aOz5fq6mrRAwPPF/Am9fX1ov+LI/5CnI9TGJ4rAK515LnBp/ylH39BqOHjHX5+cW8mT6eboZDnoZeFhobSQw89RImJiWQ0GsV5PiB48803KTg4WO4F4F14KByXY3/88ccUHx9PtbW1YuEPNnygzMN/eDp1niL3gAMOEEn/9ddfL55HDz/8sPwpAP0fv2/wuH3HhYcxJCcn0+WXX47nCoADbmT/yCOPiKo+rmJatmwZ8UfgmTNn0n777Uc+Pj6iFyYPm+MKJ676455MfKDNU7DzvwPwBllZWWIIXFpamvgynCvI77//fpo0aRKdeOKJeK6AV+NjkszMTNEfad68eSIQCggIEM8D7nG5t+dGdHS0CJsWLlwohmhv27ZNfDY76aST6IorrpC/xYOpk8ZBX1EeaFblA49VefG2HnLIIdbff/9dbgHwTvyy5GpZsGCB3MNqbWhosN50003WiIgIa2BgoPWcc86xFhYWyq0A3mvcuHHWqVOnykt4rgA4+uKLL6yjRo0S00Knp6db58+fL7eoLBaL9aGHHrLGxsaKfcaPH2/NycmRWwG8Q3V1tXgf4eMTf39/a3JysvWBBx6wNjU1yT3wXAHv9cMPP7g8Tpk8ebLY3pHnRllZmXXixInW4OBga2hoqPXKK6+01tTUyK2ezYf/p9whAAAAAAAAAAAAnYaeSwAAAAAAAAAA0GUIlwAAAAAAAAAAoMsQLgEAAAAAAAAAQJchXAIAAAAAAAAAgC5DuAQAAAAAAAAAAF2GcAkAAAAAAAAAALoM4RIAAAAAAAAAAHQZwiUAAAAAAAAAAOgyhEsAAADQb/3444/k4+NDlZWVco1rQ4YMoeeff15eAgAAAIDOQLgEAAAAveqKK66gs88+W16y62gQtC/efvttCg8Pl5f2Dd8Ovr68+Pn50bBhw+jRRx8lk8kk93BffJ0/++wzeQkAAABg3yBcAgAAAOiiU045hQoLCyk3N5fuvPNOmjFjBj311FNya+eYzWayWCzyEgAAAIDnQLgEAAAAbuuXX36ho48+mgICAigxMZGmTJlCdXV1civRu+++S2PHjqWQkBCKi4ujSZMmUUlJidzqjCujrrzySqqqqrJVHHEYpKmvr6errrpK/KykpCSaP3++3NI+o9Eofu/gwYPpxhtvpBNOOIE+//xzsa2pqYmmTZtGCQkJFBQURIceeqi4Dhqtior3z8jIED9r+/bt4t/dc8894vbyOq6IevPNN+W/ItqwYQNNmDCBgoODKTY2li677DIqLS2VW4mOPfZYcT/dfffdFBkZKa6f4+3kIYDsnHPOEfeBdnnLli101llniZ/JP/vggw+mFStWiG0aDtJOO+008fcYOnQoffDBB22GFHLl2TXXXEPR0dEUGhpKxx9/PP37779yKwAAAPRHCJcAAADALXHYwZVB5513Hv3333/04YcfirDplltukXsQtbS00MyZM0V4wcO8tm3bJoaruXLEEUeIEIQDDw5JeOHwR/PMM8+IoGrdunV00003ibAoJydHbu0YDl2am5vFeb6ev/32Gy1atEhc/wsuuEDcHq5y0nCgNWfOHHrjjTdo48aNFBMTQ5dffjktXLiQXnzxRcrKyqJ58+aJsIdxcMNhzYEHHkhr166lZcuWUXFxMV144YViu+add94RgdYff/xBTz75pBiut3z5crFtzZo14nTBggXiPtAu19bW0qmnnkrff/+9uA/4up5xxhki8NLwddu1a5cIyT755BMRwLUO8/h28rpvvvmG/vrrLzrooINo/PjxVF5eLvcAAACAfscKAAAA0IsmT55s1el01qCgIKfF39/fyh9NKioqxH5XX3219brrrhPnNT///LPV19fX2tDQINc4W7NmjfgZNTU14vIPP/zg9DMXLFhgDQsLE+cdDR482HrppZfKS1arxWKxxsTEWF999VW5pi2+HWeddZY4z/svX77cajQardOmTbPm5+eL21hQUCC2a8aPH2+97777xHm+Lnzd/vnnH3GZ5eTkiHX8s1yZOXOm9aSTTpKXVDt27BD/hv8tGzdunPWoo44S5zUHH3yw9Z577pGXrGL/JUuWyEvtGzlypHXu3LnifFZWlvh3fB9rcnNzxbrnnntOXOa/T2hoqLWxsVFc1qSkpFjnzZsnLwEAAEB/g8olAAAA6HXHHXcc/fPPP04LV+844mokHjrGVTvacvLJJ4u+RFu3bhX7cGUMV9fwMDYezjZu3Dix3rHapqP2228/eU5teM3DydobYqf58ssvxfXy9/cXQ9UuuugiMQRt/fr1oofS8OHDna7/qlWrREWWhhuBO/5evh90Op3tdrTG98kPP/zg9DPT09PFNsef6/gz2cCBA/d6W7hyiSu5RowYIYbr8c/myintvuQqLr1eLyqRNDxkLyIiQl5Srx//nKioKKfryH8vx+sHAAAA/QvCJQAAAOh1PGSLgwnHhXsTOeKQ4vrrr3cKoDi84GFlKSkpovcSh008zO39998Xw7uWLFki/q02NK0zDAaDPKfigGlvDba1kIyvU0NDg204Gl93Dok4/HK8/hzWvPDCC/Jfq8Po+Pdo+PKe8M/lMM3xZ/LCv/+YY46Re3XttnCwxPffE088QT///LP4uaNHj+7UfcnXj4Os1tePg6m77rpL7gUAAAD9DcIlAAAAcEtcIZOZmdkmhOKFK36ys7OprKyMZs+eLZp+cwXP3qpz+N9xRVF30UIyrpziqh4N90Ti38PXp/V154qo9nCYwyEQVzi5wvcJ92biJtqtfy5fl47i8Kn1/bB69WrRr4obffP14OvJPaw0aWlpZDKZRD8mzebNm6miokJeUq9fUVGRuC9aX78BAwbIvQAAAKC/QbgEAAAAbolnTPv1119FY2yufuHqnKVLl9oaenOgw2HR3LlzKS8vT8y6xs2994RDGa6u4abVPMMaN9TuCTwc7pJLLhENsD/99FMxLOzPP/+kWbNm0VdffSX3aouv3+TJk8WsddygnP8dN8/+6KOPxPabb75ZNMaeOHGiqNTioWbffvutmAWvM6EZ/x6+DzgI0sKh1NRUcV35vuYKMZ55z7HaicM7ng3vuuuuE7eFQyY+71h9xdsPP/xwOvvss+m7774T4RT/DR944AHRgBwAAAD6J4RLAAAA4Ja4bxBX8GzatElUJnE10PTp0yk+Pl5s56nuuSfT4sWLxVT+XMH09NNPi23t4RnjbrjhBtEbif89z6TWU3g2Ng6X7rzzTlH1w4ELB0Iciu3Jq6++Sueff76YsY4DnWuvvVYMAWR827nCiIOkk046SVQY3XbbbaJHkq9vxz/W8cx4PHtcYmKiuF/Zs88+K/on8X3EQ+94yKFjfyX2v//9j2JjY8UQPK5w4uvGva645xTjkOnrr78W2znw4pDt4osvpvz8fPHvAAAAoH/y4a7e8jwAAAAAQIft3LlTBFQrVqyg8ePHy7UAAADgbRAuAQAAAECHrFy5Ugwr5IqpwsJCuvvuu6mgoEBUl7VuIg4AAADeA8PiAAAAAKBDWlpa6P7776eRI0eKYXE8tJB7QiFYAgAA8G6oXAIAAAAAAAAAgC5D5RIAAAAAAAAAAHQZwiUAAAAAAAAAAOgyhEsAAAAAAAAAANBlCJcAAAAAAAAAAKDLEC4BAAAAAAAAAECXIVwCAAAAAAAAAIAuQ7gEAAAAAAAAAABdhnAJAAAAAAAAAAC6DOESAAAAAAAAAAB0EdH/ASnmki+ipRENAAAAAElFTkSuQmCC;" parent="1" vertex="1">
          <mxGeometry x="760" y="760" width="1175" height="298" as="geometry" />
        </mxCell>
        <mxCell id="qWDempu_S3Mu_BySNkmg-72" value="" style="endArrow=classic;html=1;rounded=0;" parent="1" edge="1">
          <mxGeometry width="50" height="50" relative="1" as="geometry">
            <mxPoint x="240" y="962" as="sourcePoint" />
            <mxPoint x="640" y="962" as="targetPoint" />
            <Array as="points" />
          </mxGeometry>
        </mxCell>
        <mxCell id="qWDempu_S3Mu_BySNkmg-73" value="0" style="edgeLabel;html=1;align=center;verticalAlign=middle;resizable=0;points=[];fontSize=8;" parent="qWDempu_S3Mu_BySNkmg-72" vertex="1" connectable="0">
          <mxGeometry x="-0.7446" y="1" relative="1" as="geometry">
            <mxPoint x="-56" y="11" as="offset" />
          </mxGeometry>
        </mxCell>
        <mxCell id="qWDempu_S3Mu_BySNkmg-88" value="25" style="edgeLabel;html=1;align=center;verticalAlign=middle;resizable=0;points=[];fontSize=8;" parent="qWDempu_S3Mu_BySNkmg-72" vertex="1" connectable="0">
          <mxGeometry x="-0.8012" y="-1" relative="1" as="geometry">
            <mxPoint x="60" y="7" as="offset" />
          </mxGeometry>
        </mxCell>
        <mxCell id="qWDempu_S3Mu_BySNkmg-89" value="50" style="edgeLabel;html=1;align=center;verticalAlign=middle;resizable=0;points=[];fontSize=8;" parent="qWDempu_S3Mu_BySNkmg-72" vertex="1" connectable="0">
          <mxGeometry x="-0.603" relative="1" as="geometry">
            <mxPoint x="120" y="8" as="offset" />
          </mxGeometry>
        </mxCell>
        <mxCell id="qWDempu_S3Mu_BySNkmg-90" value="75" style="edgeLabel;html=1;align=center;verticalAlign=middle;resizable=0;points=[];fontSize=8;" parent="qWDempu_S3Mu_BySNkmg-72" vertex="1" connectable="0">
          <mxGeometry x="-0.405" y="1" relative="1" as="geometry">
            <mxPoint x="181" y="9" as="offset" />
          </mxGeometry>
        </mxCell>
        <mxCell id="qWDempu_S3Mu_BySNkmg-74" value="" style="endArrow=classic;html=1;rounded=0;" parent="1" edge="1">
          <mxGeometry width="50" height="50" relative="1" as="geometry">
            <mxPoint x="240" y="962" as="sourcePoint" />
            <mxPoint x="240" y="802" as="targetPoint" />
          </mxGeometry>
        </mxCell>
        <mxCell id="qWDempu_S3Mu_BySNkmg-75" value="0.5" style="edgeLabel;html=1;align=center;verticalAlign=middle;resizable=0;points=[];fontSize=8;" parent="qWDempu_S3Mu_BySNkmg-74" vertex="1" connectable="0">
          <mxGeometry x="-0.0083" y="1" relative="1" as="geometry">
            <mxPoint x="-14" as="offset" />
          </mxGeometry>
        </mxCell>
        <mxCell id="qWDempu_S3Mu_BySNkmg-76" value="M(Z)" style="text;html=1;align=center;verticalAlign=middle;resizable=0;points=[];autosize=1;strokeColor=none;fillColor=none;fontStyle=1" parent="1" vertex="1">
          <mxGeometry x="180" y="782" width="50" height="30" as="geometry" />
        </mxCell>
        <mxCell id="qWDempu_S3Mu_BySNkmg-77" value="" style="endArrow=none;html=1;rounded=0;fontColor=#FF6666;fillColor=#ffe6cc;strokeColor=#d79b00;strokeWidth=3;" parent="1" edge="1">
          <mxGeometry width="50" height="50" relative="1" as="geometry">
            <mxPoint x="290" y="960" as="sourcePoint" />
            <mxPoint x="340" y="800" as="targetPoint" />
          </mxGeometry>
        </mxCell>
        <mxCell id="qWDempu_S3Mu_BySNkmg-78" value="100" style="text;html=1;align=center;verticalAlign=middle;resizable=0;points=[];autosize=1;strokeColor=none;fillColor=none;fontSize=8;" parent="1" vertex="1">
          <mxGeometry x="625" y="970" width="40" height="20" as="geometry" />
        </mxCell>
        <mxCell id="qWDempu_S3Mu_BySNkmg-79" value="" style="endArrow=none;html=1;rounded=0;fillColor=#ffe6cc;strokeColor=#d79b00;strokeWidth=3;" parent="1" edge="1">
          <mxGeometry width="50" height="50" relative="1" as="geometry">
            <mxPoint x="340" y="800" as="sourcePoint" />
            <mxPoint x="420" y="960" as="targetPoint" />
          </mxGeometry>
        </mxCell>
        <mxCell id="qWDempu_S3Mu_BySNkmg-80" value="" style="endArrow=none;html=1;rounded=0;fillColor=#dae8fc;strokeColor=#6c8ebf;strokeWidth=3;" parent="1" edge="1">
          <mxGeometry width="50" height="50" relative="1" as="geometry">
            <mxPoint x="240" y="802" as="sourcePoint" />
            <mxPoint x="320" y="960" as="targetPoint" />
          </mxGeometry>
        </mxCell>
        <mxCell id="qWDempu_S3Mu_BySNkmg-81" value="1" style="text;html=1;align=center;verticalAlign=middle;resizable=0;points=[];autosize=1;strokeColor=none;fillColor=none;strokeWidth=1;fontSize=8;" parent="1" vertex="1">
          <mxGeometry x="210" y="802" width="30" height="20" as="geometry" />
        </mxCell>
        <mxCell id="qWDempu_S3Mu_BySNkmg-82" value="" style="endArrow=none;html=1;rounded=0;fillColor=#d5e8d4;strokeColor=#82b366;strokeWidth=3;" parent="1" edge="1">
          <mxGeometry width="50" height="50" relative="1" as="geometry">
            <mxPoint x="440" y="800" as="sourcePoint" />
            <mxPoint x="360" y="960" as="targetPoint" />
          </mxGeometry>
        </mxCell>
        <mxCell id="qWDempu_S3Mu_BySNkmg-83" value="DP" style="text;html=1;align=center;verticalAlign=middle;resizable=0;points=[];autosize=1;strokeColor=none;fillColor=none;" parent="1" vertex="1">
          <mxGeometry x="220" y="772" width="40" height="30" as="geometry" />
        </mxCell>
        <mxCell id="qWDempu_S3Mu_BySNkmg-84" value="MW" style="text;html=1;align=center;verticalAlign=middle;resizable=0;points=[];autosize=1;strokeColor=none;fillColor=none;" parent="1" vertex="1">
          <mxGeometry x="414" y="742" width="40" height="30" as="geometry" />
        </mxCell>
        <mxCell id="qWDempu_S3Mu_BySNkmg-85" value="HW" style="text;html=1;align=center;verticalAlign=middle;resizable=0;points=[];autosize=1;strokeColor=none;fillColor=none;" parent="1" vertex="1">
          <mxGeometry x="580" y="742" width="40" height="30" as="geometry" />
        </mxCell>
        <mxCell id="qWDempu_S3Mu_BySNkmg-87" value="Z" style="text;html=1;align=center;verticalAlign=middle;resizable=0;points=[];autosize=1;strokeColor=none;fillColor=none;" parent="1" vertex="1">
          <mxGeometry x="665" y="960" width="30" height="30" as="geometry" />
        </mxCell>
        <mxCell id="qWDempu_S3Mu_BySNkmg-95" value="" style="endArrow=none;html=1;rounded=0;fillColor=#d5e8d4;strokeColor=#82b366;strokeWidth=3;" parent="1" edge="1">
          <mxGeometry width="50" height="50" relative="1" as="geometry">
            <mxPoint x="440" y="800" as="sourcePoint" />
            <mxPoint x="520" y="960" as="targetPoint" />
          </mxGeometry>
        </mxCell>
        <mxCell id="qWDempu_S3Mu_BySNkmg-97" value="" style="endArrow=none;html=1;rounded=0;fillColor=#d5e8d4;strokeColor=#c00a6f;strokeWidth=3;" parent="1" edge="1">
          <mxGeometry width="50" height="50" relative="1" as="geometry">
            <mxPoint x="540" y="802" as="sourcePoint" />
            <mxPoint x="460" y="960" as="targetPoint" />
          </mxGeometry>
        </mxCell>
        <mxCell id="qWDempu_S3Mu_BySNkmg-98" value="" style="endArrow=none;html=1;rounded=0;fillColor=#d5e8d4;strokeColor=#CC0066;strokeWidth=3;" parent="1" edge="1">
          <mxGeometry width="50" height="50" relative="1" as="geometry">
            <mxPoint x="540" y="800" as="sourcePoint" />
            <mxPoint x="630" y="960" as="targetPoint" />
          </mxGeometry>
        </mxCell>
        <mxCell id="qWDempu_S3Mu_BySNkmg-99" value="UP" style="text;html=1;align=center;verticalAlign=middle;resizable=0;points=[];autosize=1;strokeColor=none;fillColor=none;" parent="1" vertex="1">
          <mxGeometry x="320" y="772" width="40" height="30" as="geometry" />
        </mxCell>
        <mxCell id="qWDempu_S3Mu_BySNkmg-100" value="HP" style="text;html=1;align=center;verticalAlign=middle;resizable=0;points=[];autosize=1;strokeColor=none;fillColor=none;" parent="1" vertex="1">
          <mxGeometry x="420" y="772" width="40" height="30" as="geometry" />
        </mxCell>
        <mxCell id="qWDempu_S3Mu_BySNkmg-101" value="FP" style="text;html=1;align=center;verticalAlign=middle;resizable=0;points=[];autosize=1;strokeColor=none;fillColor=none;" parent="1" vertex="1">
          <mxGeometry x="520" y="772" width="40" height="30" as="geometry" />
        </mxCell>
        <mxCell id="-jyGxTN262Zzm54TJHfO-1" value="4" style="text;html=1;align=center;verticalAlign=middle;resizable=0;points=[];autosize=1;strokeColor=none;fillColor=none;fontSize=8;" vertex="1" parent="1">
          <mxGeometry x="360" y="440" width="30" height="20" as="geometry" />
        </mxCell>
        <mxCell id="-jyGxTN262Zzm54TJHfO-2" value="6" style="text;html=1;align=center;verticalAlign=middle;resizable=0;points=[];autosize=1;strokeColor=none;fillColor=none;fontSize=8;" vertex="1" parent="1">
          <mxGeometry x="450" y="440" width="30" height="20" as="geometry" />
        </mxCell>
        <mxCell id="-jyGxTN262Zzm54TJHfO-4" value="0.6" style="text;html=1;align=center;verticalAlign=middle;resizable=0;points=[];autosize=1;strokeColor=none;fillColor=none;fontSize=8;" vertex="1" parent="1">
          <mxGeometry x="450" y="702" width="30" height="20" as="geometry" />
        </mxCell>
        <mxCell id="-jyGxTN262Zzm54TJHfO-5" value="0.4" style="text;html=1;align=center;verticalAlign=middle;resizable=0;points=[];autosize=1;strokeColor=none;fillColor=none;fontSize=8;" vertex="1" parent="1">
          <mxGeometry x="360" y="702" width="30" height="20" as="geometry" />
        </mxCell>
        <mxCell id="-jyGxTN262Zzm54TJHfO-8" value="20" style="edgeLabel;html=1;align=center;verticalAlign=middle;resizable=0;points=[];rotation=0;" vertex="1" connectable="0" parent="1">
          <mxGeometry x="319.9966666666666" y="970" as="geometry" />
        </mxCell>
        <mxCell id="-jyGxTN262Zzm54TJHfO-9" value="30" style="edgeLabel;html=1;align=center;verticalAlign=middle;resizable=0;points=[];rotation=0;" vertex="1" connectable="0" parent="1">
          <mxGeometry x="359.9966666666666" y="970" as="geometry" />
        </mxCell>
        <mxCell id="-jyGxTN262Zzm54TJHfO-11" value="45" style="edgeLabel;html=1;align=center;verticalAlign=middle;resizable=0;points=[];" vertex="1" connectable="0" parent="1">
          <mxGeometry x="420.00444444444446" y="970.0000000000002" as="geometry" />
        </mxCell>
        <mxCell id="-jyGxTN262Zzm54TJHfO-12" value="55" style="edgeLabel;html=1;align=center;verticalAlign=middle;resizable=0;points=[];" vertex="1" connectable="0" parent="1">
          <mxGeometry x="460.00444444444446" y="970.0000000000002" as="geometry" />
        </mxCell>
        <mxCell id="-jyGxTN262Zzm54TJHfO-15" value="70" style="edgeLabel;html=1;align=center;verticalAlign=middle;resizable=0;points=[];" vertex="1" connectable="0" parent="1">
          <mxGeometry x="519.9997674418604" y="969.9999999999998" as="geometry" />
        </mxCell>
        <mxCell id="-jyGxTN262Zzm54TJHfO-16" value="80" style="edgeLabel;html=1;align=center;verticalAlign=middle;resizable=0;points=[];" vertex="1" connectable="0" parent="1">
          <mxGeometry x="559.9997674418604" y="969.9999999999998" as="geometry" />
        </mxCell>
        <mxCell id="-jyGxTN262Zzm54TJHfO-18" value="3" style="text;html=1;align=center;verticalAlign=middle;resizable=0;points=[];autosize=1;strokeColor=none;fillColor=none;fontSize=8;" vertex="1" parent="1">
          <mxGeometry x="325" y="440" width="30" height="20" as="geometry" />
        </mxCell>
        <mxCell id="-jyGxTN262Zzm54TJHfO-19" value="7" style="text;html=1;align=center;verticalAlign=middle;resizable=0;points=[];autosize=1;strokeColor=none;fillColor=none;fontSize=8;" vertex="1" parent="1">
          <mxGeometry x="480" y="440" width="30" height="20" as="geometry" />
        </mxCell>
        <mxCell id="-jyGxTN262Zzm54TJHfO-20" value="0.3" style="text;html=1;align=center;verticalAlign=middle;resizable=0;points=[];autosize=1;strokeColor=none;fillColor=none;fontSize=8;" vertex="1" parent="1">
          <mxGeometry x="325" y="702" width="30" height="20" as="geometry" />
        </mxCell>
        <mxCell id="-jyGxTN262Zzm54TJHfO-21" value="0.7" style="text;html=1;align=center;verticalAlign=middle;resizable=0;points=[];autosize=1;strokeColor=none;fillColor=none;fontSize=8;" vertex="1" parent="1">
          <mxGeometry x="490" y="702" width="30" height="20" as="geometry" />
        </mxCell>
        <mxCell id="-jyGxTN262Zzm54TJHfO-22" value="12" style="edgeLabel;html=1;align=center;verticalAlign=middle;resizable=0;points=[];rotation=0;" vertex="1" connectable="0" parent="1">
          <mxGeometry x="289.9966666666666" y="970" as="geometry" />
        </mxCell>
      </root>
    </mxGraphModel>
  </diagram>
</mxfile>
